<svg xmlns="http://www.w3.org/2000/svg" xmlns:xlink="http://www.w3.org/1999/xlink" xmlns:lucid="lucid" width="2747.71" height="1940"><g transform="translate(-152.29012345679013 220)" lucid:page-tab-id="0_0"><path d="M0-1258.83h3677.73v3840.5H0z" fill="#fff"/><path d="M480 106c0-3.3 2.7-6 6-6h2388c3.3 0 6 2.7 6 6v1588c0 3.3-2.7 6-6 6H486c-3.3 0-6-2.7-6-6z" stroke="#5e5e5e" stroke-width="3" fill-opacity="0"/><use xlink:href="#a" transform="matrix(1,0,0,1,488,108) translate(1147.1234567901236 17.77777777777778)"/><use xlink:href="#b" transform="matrix(1,0,0,1,488,108) translate(1188.851851851852 17.77777777777778)"/><path d="M299.75 288.3c0 10.9-8.84 19.75-19.75 19.75-10.9 0-19.75-8.85-19.75-19.75s8.84-19.75 19.75-19.75c10.9 0 19.75 8.84 19.75 19.75z" stroke="#5e5e5e" stroke-width="3" fill="#fff"/><path d="M280 308.05v49.3c0 3.3 1.44 8.27 3.2 11.07l36.8 58.13m-40-63.2l-40 63.2m0-98.75h80" stroke="#5e5e5e" stroke-width="3" fill="none"/><path d="M240 274.55c0-3.32 2.7-6 6-6h68c3.3 0 6 2.68 6 6v168c0 3.3-2.7 6-6 6h-68c-3.3 0-6-2.7-6-6z" fill="none"/><use xlink:href="#c" transform="matrix(1,0,0,1,160,426.5454545454545) translate(88.58024691358025 17.77777777777778)"/><path d="M765.77 358.55c0 43.37-44.9 78.54-100.28 78.54-55.4 0-100.3-35.18-100.3-78.55 0-43.38 44.9-78.55 100.3-78.55 55.37 0 100.27 35.17 100.27 78.55z" stroke="#5e5e5e" stroke-width="3" fill="#fff"/><use xlink:href="#d" transform="matrix(1,0,0,1,565.1985417204485,280) translate(31.604999999999997 83.525)"/><use xlink:href="#e" transform="matrix(1,0,0,1,565.1985417204485,280) translate(79.555 83.525)"/><use xlink:href="#f" transform="matrix(1,0,0,1,565.1985417204485,280) translate(123.45500000000001 83.525)"/><path d="M1130.43 453.77c0 36.15-33.67 65.45-75.2 65.45-41.56 0-75.23-29.3-75.23-65.45 0-36.15 33.67-65.46 75.22-65.46 41.54 0 75.2 29.32 75.2 65.47z" stroke="#5e5e5e" stroke-width="3" fill="#fff"/><use xlink:href="#g" transform="matrix(1,0,0,1,980,388.31440072218084) translate(28.029999999999994 67.61875)"/><use xlink:href="#h" transform="matrix(1,0,0,1,980,388.31440072218084) translate(73.03 67.61875)"/><path d="M1317.42 652c0 36.15-50.52 65.45-112.83 65.45-62.32 0-112.83-29.3-112.83-65.45 0-36.15 50.5-65.45 112.82-65.45 62.3 0 112.82 29.3 112.82 65.45z" stroke="#5e5e5e" stroke-width="3" fill="#fff"/><use xlink:href="#i" transform="matrix(1,0,0,1,1091.7717717717717,586.5454545454545) translate(65.58 67.61875)"/><use xlink:href="#j" transform="matrix(1,0,0,1,1091.7717717717717,586.5454545454545) translate(70.58 67.61875)"/><use xlink:href="#h" transform="matrix(1,0,0,1,1091.7717717717717,586.5454545454545) translate(111.47999999999999 67.61875)"/><path d="M977.5 454.77h-2.05v-2h2.05m-10.27 2h-4.1v-2h4.1m-12.33 2h-4.1v-2h4.1m-12.33 2h-4.1v-2h4.1m-12.32 2h-4.1v-2h4.1m-12.33 2h-4.1v-2h4.1m-12.33 2h-4.1v-2h4.1m-12.33 2h-4.1v-2h4.1m-14.25 0h1.92v2h-2.2l-1.6-.44.5-1.93m-3.75-4.76l.36 1.37-1.93.53-.44-1.63v-2.1h2m0-7.94h-2v-3.96h2m0-7.93h-2V422h2m0-7.92h-2v-3.96h2m0-7.93h-2v-3.97h2m0-22.68h-2v-1.1h2m0-10.04v2.13h-2v-1.85l-.38-1.37 1.93-.5m-4.8-4.8l-.53 1.92-1.37-.37h-1.8v-2h2.07m-9.8 2h-3.85v-2h3.86m-11.6 2h-3.85v-2h3.86m-11.58 2h-3.87v-2h3.86m-11.6 2h-3.85v-2h3.87m-11.6 2h-3.85v-2h3.86m-11.6 2h-3.85v-2h3.86m-11.6 2h-1.93v-2h1.94" fill="#5e5e5e"/><path d="M978.5 453.76l.02 1h-1.05v-2h1.06M784.77 363.18l-14.26-4.63 14.27-4.64z" fill="#5e5e5e"/><path d="M785.77 364.56l-18.5-6 18.5-6.03m-12.03 6.02l10.03 3.25v-6.5" fill="#5e5e5e"/><use xlink:href="#k" transform="matrix(1,0,0,1,817.6515522701665,375.54576493319274) translate(0 14.222222222222223)"/><path d="M1089.27 653h-2v-2h2m-9.95 2h-3.97v-2h3.97m-11.93 2h-4v-2h4m-11.95 2h-3.98v-2h3.98m-11.94 2h-3.96v-2h3.97m-11.92 2h-3.98v-2h3.98m-11.94 2h-3.98v-2h3.98m-11.94 2h-3.98v-2h3.98m-11.93 2h-3.98v-2h3.97m-11.94 2h-3.98v-2h3.98m-11.94 2h-4v-2h4m-11.94 2h-3.98v-2h3.98m-11.94 2h-3.98v-2h3.98m-11.94 2h-3.98v-2h3.98m-11.93 2h-3.98v-2h3.98m-11.94 2h-3.97v-2h3.98m-11.93 2h-3.98v-2h3.97m-11.93 2h-3.98v-2h3.98m-11.94 2h-3.98v-2h3.98m-11.94 2h-3.98v-2h3.98m-11.93 2h-3.98v-2h3.98m-11.94 2h-4v-2h4m-11.95 2h-3.98v-2h3.98m-11.93 2h-3.98v-2h3.98m-11.94 2h-3.98v-2h3.98m-11.94 2h-3.98v-2h3.98m-121.22 0h1.85v2h-2.12l-1.62-.44.52-1.93m-3.76-4.76l.36 1.37-1.93.52-.44-1.63v-2.1h2m0-7.87h-2v-3.93h2m0-7.88h-2v-3.93h2m0-7.87h-2v-3.94h2m0-7.86h-2v-3.93h2m0-7.87h-2V585h2m0-7.87h-2v-3.94h2m0-7.88h-2v-3.93h2m0-7.9h-2v-3.92h2m0-7.87h-2v-3.93h2m0-7.87h-2v-3.93h2m0-7.88h-2v-3.94h2m0-7.87h-2v-3.95h2m0-7.87h-2v-3.93h2m0-7.88h-2v-3.93h2m0-7.87h-2v-3.94h2m0-7.87h-2v-1.97h2" fill="#5e5e5e"/><path d="M1090.27 652v.8l.02.2h-1.05v-2h1.04M670.12 456.1h-9.27l4.64-14.27z" fill="#5e5e5e"/><path d="M671.5 457.1h-12.03l6.02-18.5m-3.27 16.5h6.5l-3.24-10.04" fill="#5e5e5e"/><use xlink:href="#k" transform="matrix(1,0,0,1,674.4037937928446,641.3333333333334) translate(0 14.222222222222223)"/><path d="M321 358.55h241.7" stroke="#5e5e5e" stroke-width="2" fill="none"/><path d="M321.03 359.55H317v-2h4.03M563.7 358.54v1h-1.03v-2h1.05" fill="#5e5e5e"/><path d="M1510.43 952.36c0 28.92-33.67 52.37-75.2 52.37-41.56 0-75.23-23.45-75.23-52.37 0-28.92 33.67-52.36 75.22-52.36 41.54 0 75.2 23.44 75.2 52.36z" stroke="#5e5e5e" stroke-width="3" fill="#fff"/><use xlink:href="#l" transform="matrix(1,0,0,1,1360,900) translate(23.029999999999994 57.05625)"/><use xlink:href="#h" transform="matrix(1,0,0,1,1360,900) translate(79.03 57.05625)"/><path d="M1192.06 845.86v-2.08m0-8.32v-4.16m0-8.32v-4.16m0-8.32v-4.16m0-8.32v-2.08l.4-1.5m4.1-4.1l1.5-.4h2m8.06 0h4.02m8.05 0h4m8.06 0h4.03m8.03 0h4.03m8.05 0h4.03m8.05 0h4.02m8.05 0h4.02m8.05 0h4.02m8.05 0h4.02m8.04 0h4.03m8.04 0h4.02m8.05 0h4.03m8.05 0h4.02m8.05 0h4.02m8.05 0h4.03m8.04 0h4.02m8.05 0h4.02m8.04 0h4.02m8.05 0h4.03m8.05 0h4.02m8.05 0h4.03m8.04 0h4.03m8.05 0h4.02m8.05 0h4.02m8.04 0h4.02m8.05 0h4.03m8.05 0h4.03m8.05 0h4.03m8.05 0h4.02m8.05 0h4.02m8.05 0h4.02m8.04 0h2l1.5-.4m4.1-4.1l.4-1.5v-1.8m0-7.2v-3.6m0-7.22v-3.6m0-7.2v-1.8" stroke="#5e5e5e" stroke-width="2" fill="none"/><path d="M1193.06 846.9l-1-.04-1 .02v-1.04h2" fill="#5e5e5e"/><path d="M1590.35 736.25l4.64 14.26h-9.28z" stroke="#5e5e5e" stroke-width="2" fill="#5e5e5e"/><use xlink:href="#m" transform="matrix(1,0,0,1,1354.2349319957868,764.6039126344035) translate(0 14.222222222222223)"/><path d="M1811 1031.64c0 28.92-33.67 52.36-75.2 52.36-41.55 0-75.23-23.44-75.23-52.36 0-28.92 33.68-52.37 75.22-52.37 41.53 0 75.2 23.45 75.2 52.37z" stroke="#5e5e5e" stroke-width="3" fill="#fff"/><use xlink:href="#n" transform="matrix(1,0,0,1,1660.5736204086245,979.2727272727271) translate(29.055 57.05625)"/><use xlink:href="#o" transform="matrix(1,0,0,1,1660.5736204086245,979.2727272727271) translate(83.005 57.05625)"/><path d="M1723.14 960.02v-2m0-8v-3.98m0-8v-4m0-7.98v-4m0-8v-4m0-7.98v-4m0-7.98v-4m0-8v-4m0-7.98v-2l-.06-.14-.14-.05-.14-.06-.06-.14v-2.1m0-8.4v-4.2m0-8.4v-4.2m0-8.4v-4.2m0-8.4v-4.2m0-8.4v-4.2m0-8.4v-4.2m0-8.4v-4.2m0-8.4v-4.2m0-8.4v-2.1" stroke="#5e5e5e" stroke-width="2" fill="none"/><path d="M1723.14 975.3L1718.5 961h9.27z" stroke="#5e5e5e" stroke-width="2" fill="#5e5e5e"/><path d="M1723.74 750.36h-2v-.55l2-.95" fill="#5e5e5e"/><use xlink:href="#m" transform="matrix(1,0,0,1,1731.1376247144908,867.2288269718367) translate(0 14.222222222222223)"/><path d="M1768.7 681.65c0 43.38-44.9 78.54-100.28 78.54-55.4 0-100.3-35.17-100.3-78.55 0-43.38 44.9-78.55 100.3-78.55s100.3 35.17 100.3 78.55z" stroke="#5e5e5e" stroke-width="3" fill="#fff"/><use xlink:href="#p" transform="matrix(1,0,0,1,1568.1348014681346,603.1003420580116) translate(55.555 83.525)"/><use xlink:href="#h" transform="matrix(1,0,0,1,1568.1348014681346,603.1003420580116) translate(95.505 83.525)"/><path d="M1136.8 454.77h-3.87v-2h3.88m15.55 2h-7.77v-2h7.77m18.65-4.87l-.92 3.42-2.53 2.53-3.42.92h-4v-2h3.74l2.64-.72 1.8-1.77.7-2.64v-4.12h2m0-8.5h-2v-8.48h2m0-8.5h-2v-8.5h2m0-8.5h-2v-8.48h2m0-8.5h-2v-8.5h2m0-8.48h-2v-3.3h2m0-21.35h-2v-.83h2m9.2-17.74h-4.07l-2.64.7-1.8 1.8-.7 2.63v4.1h-2v-4.37l.92-3.42 2.53-2.52 3.42-.92h4.33m16.8 2h-8.4v-2h8.4m16.8 2h-8.4v-2h8.4m16.8 2h-8.4v-2h8.4m16.8 2h-8.4v-2h8.4m12.6 2h-4.2v-2h4.2" fill="#5e5e5e"/><path d="M1132.96 454.77h-1.06l.03-1-.02-1h1.06M1275.26 322.86L1261 327.5v-9.28z" fill="#5e5e5e"/><path d="M1278.5 322.86l-18.5 6v-12m2 9.26l10.03-3.26-10.03-3.26" fill="#5e5e5e"/><use xlink:href="#m" transform="matrix(1,0,0,1,1118.2222222222222,342.43251905234064) translate(0 14.222222222222223)"/><path d="M1500.8 682.65h-4.1v-2h4.1m12.35 2h-4.1v-2h4.1m12.35 2h-4.12v-2h4.12m12.34 2h-4.1v-2h4.1m10.3 2h-2.06v-2h2.05m-237.9 1.87h-1.95v-2h1.95m11.7 2h-3.9v-2h3.9m11.68 2h-3.9v-2h3.9m11.7 2h-3.9v-2h3.9m11.7 2h-3.9v-2h3.9m11.7 2h-3.9v-2h3.9m11.68 2h-3.9v-2h3.9" fill="#5e5e5e"/><path d="M1308.3 682.52h-1.88l.38-.4 1.3-1.6h.2M1563.4 681.65l-14.27 4.63V677z" fill="#5e5e5e"/><path d="M1566.63 681.65l-18.5 6v-12.02m2 9.27l10.03-3.25-10.03-3.26" fill="#5e5e5e"/><use xlink:href="#m" transform="matrix(1,0,0,1,1385.1778364854365,670.9163660225059) translate(0 14.222222222222223)"/><path d="M1292.35 1188.73c0 43.38-44.9 78.54-100.3 78.54-55.38 0-100.28-35.16-100.28-78.54 0-43.38 44.9-78.55 100.3-78.55 55.38 0 100.28 35.17 100.28 78.55z" stroke="#5e5e5e" stroke-width="3" fill="#fff"/><use xlink:href="#l" transform="matrix(1,0,0,1,1091.7717717717717,1110.1818181818182) translate(49.529999999999994 83.525)"/><use xlink:href="#f" transform="matrix(1,0,0,1,1091.7717717717717,1110.1818181818182) translate(105.53 83.525)"/><path d="M1267.27 913.82c0 36.15-33.67 65.45-75.2 65.45-41.55 0-75.23-29.3-75.23-65.45 0-36.15 33.68-65.46 75.22-65.46s75.2 29.3 75.2 65.46z" stroke="#5e5e5e" stroke-width="3" fill="#fff"/><use xlink:href="#q" transform="matrix(1,0,0,1,1116.8435101768434,848.3636363636363) translate(14.579999999999993 67.61875)"/><use xlink:href="#h" transform="matrix(1,0,0,1,1116.8435101768434,848.3636363636363) translate(86.48 67.61875)"/><path d="M752.5 1581.45c0 43.38-44.9 78.55-100.3 78.55s-100.3-35.17-100.3-78.55c0-43.37 44.9-78.54 100.3-78.54s100.3 35.18 100.3 78.55z" stroke="#5e5e5e" stroke-width="3" fill="#fff"/><use xlink:href="#r" transform="matrix(1,0,0,1,551.9142738331967,1502.909090909091) translate(28.104999999999997 83.525)"/><use xlink:href="#s" transform="matrix(1,0,0,1,551.9142738331967,1502.909090909091) translate(63.055 83.525)"/><use xlink:href="#e" transform="matrix(1,0,0,1,551.9142738331967,1502.909090909091) translate(83.055 83.525)"/><use xlink:href="#f" transform="matrix(1,0,0,1,551.9142738331967,1502.909090909091) translate(126.95500000000001 83.525)"/><path d="M1430.98 1189.3l-1.63.43h-2.08v-2h1.8l1.38-.37m-10.97 2.37h-3.9v-2h3.9m-11.7 2h-3.9v-2h3.9m-11.68 2h-3.9v-2h3.9m-11.68 2h-3.9v-2h3.9m-11.7 2h-3.9v-2h3.9m-11.68 2h-3.9v-2h3.9m-11.68 2h-3.9v-2h3.9m-11.7 2h-3.9v-2h3.9m-11.68 2h-3.9v-2h3.9m-11.68 2h-1.95v-2h1.95m121.92-4.87l-.45 1.63-1.93-.53.38-1.38v-1.82h2m0-7.8h-2v-3.9h2m0-7.8h-2v-3.9h2m0-7.8h-2v-3.9h2m0-7.8h-2v-3.9h2m0-7.8h-2v-3.9h2m0-7.8h-2v-3.9h2m0-7.8h-2v-3.9h2m0-7.8h-2v-3.9h2m0-23.26h-2v-.14h2m0-7.8h-2v-3.9h2m0-7.8h-2v-3.9h2m0-7.8h-2v-3.9h2m0-7.8h-2v-3.9h2m0-7.8h-2v-1.95h2" fill="#5e5e5e"/><path d="M1435.2 1006.23l1.02-.02v1.05h-2v-1.06M1311.35 1193.36l-14.27-4.63 14.27-4.64z" fill="#5e5e5e"/><path d="M1312.35 1194.74l-18.5-6 18.5-6.02m-12.03 6l10.03 3.27v-6.53" fill="#5e5e5e"/><use xlink:href="#m" transform="matrix(1,0,0,1,1383.4374374374374,1063.92034388723) translate(0 14.222222222222223)"/><path d="M653.2 1500.4h-2v-2h2m0-8h-2v-4h2m0-8h-2v-4h2m0-8h-2v-4h2m0-8h-2v-4h2m0-8h-2v-4h2m0-8h-2v-4h2m0-8h-2v-4h2m0-8h-2v-4h2m0-8h-2v-4h2m0-8h-2v-4h2m0-8h-2v-4h2m0-8h-2v-4h2m0-8h-2v-4h2m0-8h-2v-4h2m0-8h-2v-4h2m0-8h-2v-4h2m0-8h-2v-4h2m0-8h-2v-4h2m0-8h-2v-4h2m0-8h-2v-4h2m0-8h-2v-4h2m0-8h-2v-4h2m0-8h-2v-4h2m0-8h-2v-4h2m0-8h-2v-4h2m0-8h-2v-4h2m0-8h-2v-4h2m0-8h-2v-4h2m0-8h-2v-4h2m0-8h-2v-4h2m0-8h-2v-4h2m0-8h-2v-4h2m0-8h-2v-4h2m0-8h-2v-4h2m0-8h-2v-4h2m0-8h-2v-4h2m0-8h-2v-4h2m0-8h-2v-4h2m0-8h-2v-4h2m0-8h-2v-4h2m0-8h-2v-4h2m0-8h-2v-4h2m0-8h-2v-4h2m0-23.4h-2v-.6h2m0-8h-2v-4h2m0-8h-2v-4h2m0-8h-2v-4h2m0-8h-2v-4h2m0-8h-2v-4h2m0-8h-2v-4h2m0-8h-2v-4h2m0-8h-2v-4h2m0-8h-2v-4h2m0-8h-2v-4h2m0-8h-2v-4h2m0-8h-2v-4h2m0-8h-2v-4h2m0-8h-2v-4h2m0-8h-2v-4h2m0-8h-2v-4h2m0-8h-2v-4h2m0-8h-2v-4h2m0-8h-2v-4h2m0-8h-2v-4h2m0-8h-2v-4h2m0-8h-2v-4h2m0-8h-2v-4h2m0-8h-2v-4h2m0-8h-2v-4h2m0-8h-2v-4h2m0-8h-2v-4h2m0-8h-2v-4h2m0-8h-2v-4h2m0-8h-2v-4h2m0-8h-2v-4h2m0-8h-2v-4h2m0-8h-2v-4h2m0-8h-2v-4h2m0-8h-2v-4h2m0-8h-2v-4h2m0-8h-2v-4h2m0-8h-2v-4h2m0-8h-2v-4h2m0-8h-2v-4h2m0-8h-2v-4h2m0-8h-2v-2h2" fill="#5e5e5e"/><path d="M653.2 1501.43l-1-.02-1 .02v-1.04h2M656.84 455.4h-9.27l4.63-14.25z" fill="#5e5e5e"/><path d="M658.2 456.4h-12l6-18.5m-3.26 16.5h6.52l-3.26-10.02" fill="#5e5e5e"/><use xlink:href="#m" transform="matrix(1,0,0,1,600.4234496757058,958.9923783295072) translate(0 14.222222222222223)"/><path d="M1193.06 1090.18h-2v-2h2m0-8.04h-2v-4h2m0-8.04h-2v-4.02h2m0-21.7h-2v-2.4h2m0-8.02h-2v-4h2m0-8.04h-2v-4.02h2m0-8.03h-2v-4h2m0-8.04h-2v-4.02h2m0-8.02h-2v-2h2" fill="#5e5e5e"/><path d="M1192.05 980.77l1-.02v1.05h-2v-1.06M1192.06 1105.45l-4.64-14.27h9.27z" fill="#5e5e5e"/><path d="M1192.06 1108.68l-6-18.5h12m-9.26 2l3.26 10.03 3.26-10.02" fill="#5e5e5e"/><use xlink:href="#k" transform="matrix(1,0,0,1,1136.824157490824,1042.3854071227775) translate(0 14.222222222222223)"/><path d="M2400.57 1118.55c0 43.37-44.9 78.54-100.28 78.54-55.4 0-100.3-35.18-100.3-78.55 0-43.38 44.9-78.55 100.3-78.55 55.37 0 100.27 35.17 100.27 78.55z" stroke="#5e5e5e" stroke-width="3" fill="#fff"/><use xlink:href="#t" transform="matrix(1,0,0,1,2200,1040) translate(37.57999999999999 83.525)"/><use xlink:href="#f" transform="matrix(1,0,0,1,2200,1040) translate(117.48 83.525)"/><path d="M1205.6 566.54h-2v-1.98h2m0-7.93h-2v-3.96h2m0-7.93h-2v-3.96h2m0-7.93h-2v-3.96h2m0-7.94h-2V517h2m0-7.93h-2v-3.97h2m0-7.93h-2v-3.96h2m0-7.92h-2v-3.96h2m0-7.93h-2v-3.97h2m1315.4-5.38h-2v-2.02h2m-1315.4-.53h-2v-3.97h2m1315.4-3.56h-2v-4.03h2m-1315.4-.33h-2v-3.96h2m1315.4-3.76h-2v-4.03h2m-1315.4-.14h-2v-3.95h2M2521 429.8h-2v-4.04h2m-1315.4.06h-2v-3.96h2M2521 417.7h-2v-4.03h2m-1315.4.26h-2v-3.96h2m1315.4-4.35h-2v-4.03h2m-1315.4.44h-2v-3.97h2m1315.4-4.54h-2v-4.03h2m-1315.4.65h-2v-3.97h2m1315.4-4.74h-2v-4.03h2m-1315.4.85h-2v-3.96h2m1315.4-4.95h-2v-4.03h2m-1315.4 1.04h-2v-2.6h2m1315.4-6.5h-2v-4.03h2m0-8.06h-2v-4.03h2m-1315.4 1.3h-2v-3.83h2M2521 333.1h-2v-4.03h2m-1315.4 1.64h-2v-3.98h2M2521 321h-2v-4.04h2m-1315.4 1.83h-2v-3.97h2M2521 308.9h-2v-4.03h2m-1315.4 2.03h-2v-3.96h2m1315.4-6.12h-2v-4.03h2M1205.6 295h-2v-3.95h2m1315.4-6.32h-2v-4.03h2m-1315.4 2.42h-2v-3.97h2m1315.4-6.5h-2v-4.04h2m-1315.4 2.63h-2v-3.97h2m1315.4-6.7h-2v-4.04h2m-1315.4 2.8h-2v-3.95h2m1315.4-6.9h-2v-4.04h2m-1315.4 3h-2v-3.95h2m1315.4-7.1h-2v-4.04h2m-1315.4 3.2h-2v-3.95h2m1315.4-7.32h-2v-4.03h2m-1315.4 3.4h-2v-3.96h2m1315.4-7.5h-2v-4.04h2m-1315.4 3.6h-2v-3.96h2m1315.4-7.7h-2v-4.03h2m-1315.4 3.8h-2v-3.96h2M2521 185.88V188h-2v-1.87l-.37-1.37 1.93-.52m-1314.6.52l-.37 1.37v1.85h-2v-2.1l.43-1.64m1311.73-4.8l-.52 1.93-1.37-.37H2512v-2h2.13m-1301.54 2h-1.87l-1.37.37-.53-1.93 1.63-.44h2.13m1291.44 2h-4v-2h4m-11.96 2h-4v-2h4m-11.96 2h-4v-2h4m-11.96 2h-3.98v-2h3.98m-11.96 2h-3.98v-2h3.98m-11.95 2h-4v-2h4m-11.96 2h-4v-2h4m-11.97 2h-4v-2h4m-11.96 2h-3.98v-2h3.97m-11.96 2h-3.97v-2h3.98m-11.94 2h-4v-2h4m-11.96 2h-4v-2h4m-11.96 2h-3.98v-2h3.98m-11.96 2h-3.98v-2h3.98m-11.95 2h-4v-2h4m-11.96 2h-4v-2h4m-11.96 2h-3.98v-2h4m-11.97 2h-3.98v-2h3.98m-11.96 2h-4v-2h4m-11.96 2h-4v-2h4m-11.96 2h-4v-2h4m-11.96 2h-4v-2h4m-11.96 2h-3.98v-2h3.98m-11.96 2h-3.98v-2h3.98m-11.95 2h-4v-2h4m-11.96 2h-4v-2h4m-11.97 2h-3.98v-2h3.98m-11.96 2h-3.98v-2h3.97m-11.95 2h-4v-2h4m-11.96 2h-4v-2h4m-11.96 2h-4v-2h4m-11.96 2h-3.98v-2h3.98m-11.96 2h-3.98v-2h3.98m-11.95 2h-4v-2h4m-11.96 2h-4v-2h4m-11.96 2h-3.98v-2h4m-11.97 2h-3.98v-2h3.98m-11.96 2h-4v-2h4m-11.96 2h-4v-2h4m-11.96 2h-4v-2h4m-11.96 2h-3.98v-2h3.98m-11.96 2h-3.98v-2h3.98m-11.95 2h-3.98v-2h4m-11.97 2h-4v-2h4m-11.96 2h-4v-2h4m-11.97 2h-3.98v-2h3.98m-11.96 2H1950v-2h3.97m-11.95 2h-4v-2h4m-11.96 2h-4v-2h4m-11.96 2h-4v-2h4m-11.96 2h-3.98v-2h3.98m-11.96 2h-3.98v-2h3.98m-11.95 2h-4v-2h4m-11.96 2h-4v-2h4m-11.96 2h-3.97v-2h3.98m-11.95 2h-3.98v-2h3.98m-11.95 2h-4v-2h4m-11.96 2h-4v-2h4m-11.96 2h-4v-2h4m-11.96 2h-3.98v-2h3.98m-11.96 2h-3.98v-2h3.98m-11.95 2h-3.98v-2h4m-11.97 2h-4v-2h4m-11.96 2h-4v-2h4m-11.97 2h-3.98v-2h3.98m-11.95 2h-4v-2h4m-11.96 2h-4v-2h4m-11.96 2h-4v-2h4m-11.96 2h-3.98v-2h3.98m-11.96 2h-3.98v-2h3.98m-11.95 2h-4v-2h4m-11.97 2h-4v-2h4m-11.96 2h-4v-2h4m-11.96 2h-3.97v-2h3.98m-11.95 2h-3.98v-2h3.98m-11.95 2h-4v-2h4m-11.96 2h-4v-2h4m-11.96 2h-4v-2h4m-11.96 2h-3.98v-2h3.98m-11.95 2h-4v-2h4m-11.96 2h-3.98v-2h4m-11.97 2h-4v-2h4m-11.96 2h-4v-2h4m-11.97 2h-3.98v-2h3.98m-11.95 2h-4v-2h4m-11.96 2h-4v-2h4m-11.96 2h-4v-2h4m-11.96 2h-3.98v-2h3.98m-11.96 2h-3.98v-2h3.98m-11.95 2h-4v-2h4m-119.6 2h-3.98v-2h4m-11.97 2h-4v-2h4m-11.96 2h-4v-2h4m-11.97 2h-3.98v-2h3.98m-11.95 2h-4v-2h4m-11.96 2h-4v-2h4m-11.96 2h-3.98v-2h3.98m-11.96 2h-3.98v-2h3.98m-11.95 2h-4v-2h4m203.28 2h-2.42v-2h2.43" fill="#5e5e5e"/><path d="M2521 465.08l-.98-.03h-.95l-.07-1.03h2M1204.6 581.8l-4.64-14.26h9.27z" fill="#5e5e5e"/><path d="M1204.6 585.05l-6.02-18.5h12.03m-9.26 2l3.25 10.02 3.25-10.03" fill="#5e5e5e"/><use xlink:href="#m" transform="matrix(1,0,0,1,1321.8508637868697,169.33333333333334) translate(0 14.222222222222223)"/><path d="M756.98 1582.45h-2v-2h2m11.98 2h-4v-2h4m11.97 2h-4v-2h4m11.98 2h-3.98v-2h4m11.96 2h-4v-2h4m11.97 2h-4v-2h4m11.98 2h-4v-2h4m11.97 2h-4v-2h4m11.98 2h-4v-2h4m11.97 2h-4v-2h4m11.98 2h-4v-2h4m11.97 2h-4v-2h4m11.97 2h-4v-2h4m11.98 2h-4v-2h4m11.97 2h-4v-2h4m11.98 2h-4v-2h4m11.97 2h-4v-2h4m11.98 2h-4v-2h4m11.97 2h-4v-2h4m11.97 2h-4v-2h4m11.97 2h-4v-2h4m11.97 2h-4v-2h4m11.98 2h-4v-2h4m11.97 2h-4v-2h4m11.96 2h-4v-2h4m11.98 2h-4v-2h4m11.97 2h-3.98v-2h4m11.97 2h-4v-2h4m11.96 2h-4v-2h4m11.98 2h-4v-2h4m11.97 2h-3.98v-2h4m11.96 2h-4v-2h4m11.98 2h-4v-2h4m11.97 2h-4v-2h4m11.98 2h-4v-2h4m11.98 2h-4v-2h4m11.74 1.56l-1.63.45h-2.14v-2h1.87l1.37-.37m5.76-4.5l-.44 1.63-1.93-.5.36-1.38v-1.87h2m0-8h-2v-4h2m0-8h-2v-4h2m0-8.02h-2v-4h2m0-8h-2v-4h2m0-8h-2v-4h2m0-8.02h-2v-4h2m0-8h-2v-4h2m0-8h-2v-4h2m0-8h-2v-4h2m0-8.02h-2v-4h2m0-8h-2v-4h2m0-8h-2v-4.02h2m0-8h-2v-4h2m0-8h-2v-4h2m0-8.02h-2v-4h2m0-8h-2v-4h2m0-8h-2v-4h2m0-8.02h-2v-4h2m0-8h-2v-4h2m0-8h-2v-4.02h2m0-8h-2v-4h2m0-8h-2v-4h2m0-8.02h-2v-4h2m0-8h-2v-2h2" fill="#5e5e5e"/><path d="M755 1582.45h-1.04l.03-1-.02-1H755M1196.7 1286.27h-9.28l4.64-14.26z" fill="#5e5e5e"/><path d="M1198.07 1287.27h-12.02l6-18.5m-3.25 16.5h6.52l-3.26-10.03" fill="#5e5e5e"/><use xlink:href="#k" transform="matrix(1,0,0,1,919.0399410005115,1556.121212121212) translate(0 14.222222222222223)"/><path d="M891.2 1188.73c0 43.38-44.9 78.54-100.3 78.54-55.38 0-100.28-35.16-100.28-78.54 0-43.38 44.9-78.55 100.3-78.55 55.38 0 100.28 35.17 100.28 78.55z" stroke="#5e5e5e" stroke-width="3" fill="#fff"/><use xlink:href="#u" transform="matrix(1,0,0,1,690.6239572906239,1110.1818181818182) translate(52.529999999999994 83.525)"/><use xlink:href="#h" transform="matrix(1,0,0,1,690.6239572906239,1110.1818181818182) translate(98.53 83.525)"/><path d="M757 1582.45h-2v-2h2m12.02 2h-4v-2h4m12.02 2h-4v-2h4m12.03 2h-4v-2h4m12.03 2h-4v-2h4m12.02 2h-4v-2h4m12.03 2h-4v-2h4m12.02 2h-4v-2h4m12.03 2h-4v-2h4m12.02 2h-4v-2h4m12.03 2h-4v-2h4m12.03 2h-4v-2h4m12.02 2h-4v-2h4m12.03 2h-4v-2h4m12.02 2h-4v-2h4m12.03 2h-4v-2h4m12.02 2h-4v-2h4m12.03 2h-4v-2h4m12.03 2h-4v-2h4m12.02 2h-4v-2h4m12.03 2h-4v-2h4m12.03 2h-4v-2h4m12.03 2h-4v-2h4m12.03 2h-4.02v-2h4m12.03 2h-4v-2h4m12.04 2h-4v-2h4m12.02 2h-4v-2h4m12.03 2h-4.02v-2h4m12.03 2h-4v-2h4m12.04 2h-4v-2h4m12.03 2h-4v-2h4m12.02 2h-4.02v-2h4m12.04 2h-4v-2h4m12.02 2h-4v-2h4m12.03 2h-4v-2h4m12.02 2h-4v-2h4m12.02 2h-4v-2h4m12.03 2h-4v-2h4m12.02 2h-4v-2h4m12.03 2h-4v-2h4m12.02 2h-4v-2h4m12.03 2h-4v-2h4m12.02 2h-4v-2h4m12.03 2h-4v-2h4m12.03 2h-4v-2h4m12.02 2h-4v-2h4m12.03 2h-4v-2h4m12.02 2h-4v-2h4m12.03 2h-4v-2h4m12.03 2h-4v-2h4m12.02 2h-4v-2h4m12.03 2h-4v-2h4m12.03 2h-4v-2h4m12.03 2h-4v-2h4m12.02 2h-4v-2h4m12.03 2h-4v-2h4m12.04 2h-4v-2h4m12.02 2h-4v-2h4m12.03 2h-4.02v-2h4m12.03 2h-4v-2h4m12.04 2h-4v-2h4m12.02 2h-4v-2h4m12.03 2h-4.02v-2h4m12.04 2h-4v-2h4m12.02 2h-4v-2h4m12.03 2h-4v-2h4m12.02 2h-4.02v-2h4m12.04 2h-4v-2h4m12.03 2h-4v-2h4m12.02 2h-4v-2h4m12.03 2h-4v-2h4m12.02 2h-4v-2h4m12.03 2h-4v-2h4m12.02 2h-4v-2h4m12.03 2h-4v-2h4m12.03 2h-4v-2h4m12.02 2h-4v-2h4m12.03 2h-4v-2h4m12.02 2h-4v-2h4m12.03 2h-4v-2h4m12.02 2h-4v-2h4m12.03 2h-4v-2h4m12.03 2h-4v-2h4m12.03 2h-4v-2h4m12.03 2h-4v-2h4m12.02 2h-4v-2h4m12.03 2h-4v-2h4m12.03 2h-4v-2h4m12.03 2h-4v-2h4m12.03 2h-4.02v-2h4m12.03 2h-4v-2h4m12.04 2h-4v-2h4m12.02 2h-4v-2h4m12.03 2h-4.02v-2h4m12.04 2h-4v-2h4m12.02 2h-4v-2h4m12.03 2h-4v-2h4m12.02 2h-4.02v-2h4m12.04 2h-4v-2h4m12.02 2h-4v-2h4m12.03 2h-4v-2h4m12.03 2h-4v-2h4m12.02 2h-4v-2h4m12.03 2h-4v-2h4m12.02 2h-4v-2h4m12.03 2h-4v-2h4m12.02 2h-4v-2h4m12.03 2h-4v-2h4m12.03 2h-4v-2h4m12.02 2h-4v-2h4m12.03 2h-4v-2h4m12.02 2h-4v-2h4m12.03 2h-4v-2h4m12.02 2h-4v-2h4m12.03 2h-4v-2h4m12.03 2h-4v-2h4m12.02 2h-4v-2h4m12.03 2h-4v-2h4m12.03 2h-4v-2h4m12.03 2h-4v-2h4m12.03 2h-4.02v-2h4m12.03 2h-4v-2h4m12.04 2h-4v-2h4m12.02 2h-4v-2h4m12.03 2h-4.02v-2h4m12.03 2h-4v-2h4m12.04 2h-4v-2h4m12.03 2h-4v-2h4m11.78 1.56l-1.63.45h-2.14v-2h1.87l1.38-.37m5.76-4.5l-.45 1.63-1.93-.5.37-1.38v-1.86h2m0-7.96h-2v-3.98h2m0-7.97h-2v-3.98h2m0-7.96h-2v-3.97h2m0-7.97h-2v-3.98h2m0-7.96h-2v-3.98h2m0-7.97h-2v-3.98h2m0-7.97h-2v-3.98h2m0-7.97h-2v-3.98h2m0-7.96h-2v-3.98h2m0-7.97h-2v-4h2m0-7.95h-2v-4h2m0-7.95h-2v-3.98h2m0-7.96h-2v-4h2m0-7.95h-2v-3.97h2m0-7.97h-2v-3.98h2m0-7.96h-2v-3.98h2m0-7.97h-2v-3.98h2m0-7.97h-2v-3.98h2m0-7.97h-2v-3.98h2m0-7.96h-2v-3.98h2m0-7.97h-2v-4h2m0-7.95h-2v-3.98h2m0-7.97h-2v-3.98h2m0-7.96h-2v-4h2m0-7.95h-2v-3.97h2m0-7.96h-2v-4h2m0-7.95h-2v-3.98h2m0-7.97h-2V1239h2m0-7.97h-2v-3.98h2m0-7.97h-2v-2h2M755 1582.45h-1.04l.03-1-.02-1H755M2304.92 1216.1h-9.27l4.64-14.27z" fill="#5e5e5e"/><path d="M2306.3 1217.1h-12.02l6-18.5m-3.25 16.5h6.52l-3.26-10.04" fill="#5e5e5e"/><use xlink:href="#k" transform="matrix(1,0,0,1,1304.8423312416428,1556.121212121212) translate(0 14.222222222222223)"/><path d="M1768.7 298.55c0 43.37-44.9 78.54-100.28 78.54-55.4 0-100.3-35.18-100.3-78.55 0-43.38 44.9-78.55 100.3-78.55s100.3 35.17 100.3 78.55z" stroke="#5e5e5e" stroke-width="3" fill="#fff"/><use xlink:href="#v" transform="matrix(1,0,0,1,1568.1348014681346,220.00000000000003) translate(31.154999999999994 73.65)"/><use xlink:href="#w" transform="matrix(1,0,0,1,1568.1348014681346,220.00000000000003) translate(95.00500000000001 73.65)"/><use xlink:href="#x" transform="matrix(1,0,0,1,1568.1348014681346,220.00000000000003) translate(77.555 95.25)"/><path d="M1994.35 298.55c0 43.37-44.9 78.54-100.28 78.54-55.4 0-100.3-35.18-100.3-78.55 0-43.38 44.9-78.55 100.3-78.55 55.38 0 100.28 35.17 100.28 78.55z" stroke="#5e5e5e" stroke-width="3" fill="#fff"/><use xlink:href="#v" transform="matrix(1,0,0,1,1793.7804471137804,220.00000000000003) translate(38.654999999999994 73.65)"/><use xlink:href="#y" transform="matrix(1,0,0,1,1793.7804471137804,220.00000000000003) translate(102.50500000000001 73.65)"/><use xlink:href="#z" transform="matrix(1,0,0,1,1793.7804471137804,220.00000000000003) translate(66.53 95.25)"/><path d="M2220 298.55c0 43.37-44.9 78.54-100.3 78.54-55.37 0-100.27-35.18-100.27-78.55 0-43.38 44.9-78.55 100.28-78.55 55.4 0 100.3 35.17 100.3 78.55z" stroke="#5e5e5e" stroke-width="3" fill="#fff"/><use xlink:href="#v" transform="matrix(1,0,0,1,2019.4260927594262,220) translate(30.604999999999997 73.65)"/><use xlink:href="#A" transform="matrix(1,0,0,1,2019.4260927594262,220) translate(94.45500000000001 73.65)"/><use xlink:href="#B" transform="matrix(1,0,0,1,2019.4260927594262,220) translate(67.205 95.25)"/><path d="M893.7 1188.73h1.98m7.9 0h3.97m7.9 0h3.97m7.9 0h3.97m7.9 0h3.96m7.92 0h3.95m7.92 0h3.96m7.92 0h3.96m7.9 0h3.97m7.9 0h3.97m7.9 0h3.97m7.9 0h3.96m7.92 0h3.95m7.92 0h3.96m7.92 0h3.96m7.9 0h2" stroke="#5e5e5e" stroke-width="2" fill="none"/><path d="M893.72 1189.73h-1.05l.03-1v-1h1.02" fill="#5e5e5e"/><path d="M1087.04 1188.73l-14.27 4.63v-9.27z" stroke="#5e5e5e" stroke-width="2" fill="#5e5e5e"/><use xlink:href="#k" transform="matrix(1,0,0,1,936.2502501241601,1163.3939393939393) translate(0 14.222222222222223)"/><path d="M1669.42 583.1h-2v-3.05h2m0-4.07h-2v-6.1h2m0-4.08h-2v-6.1h2m0-4.08h-2v-6.1h2m0-4.07h-2v-6.1h2m0-4.08h-2v-6.1h2m0-4.07h-2V519h2m0-4.08h-2v-6.1h2m0-4.07h-2v-6.1h2m0-4.08h-2v-6.1h2m0-4.07h-2v-6.1h2m0-4.08h-2v-6.1h2m0-4.07h-2v-6.1h2m0-4.08h-2v-6.1h2m0-4.07h-2v-6.1h2m0-4.08h-2v-6.1h2m0-24.43h-2v-6.1h2m0-4.08h-2v-6.1h2m0-4.08h-2v-3.05h2" fill="#5e5e5e"/><path d="M1668.4 378.6l1.02-.02v1.04h-2v-1.05M1668.42 598.36l-4.63-14.26h9.26z" fill="#5e5e5e"/><path d="M1668.42 601.6l-6-18.5h12m-9.26 2l3.26 10.03 3.26-10.03" fill="#5e5e5e"/><use xlink:href="#C" transform="matrix(1,0,0,1,1616.6439773106438,405.77899346223666) translate(0 14.222222222222223)"/><path d="M787.87 1526l-2.83.76h-3.2v-2h2.94l2.57-.7m-9.64 2.7h-6.16v-2h6.17m-10.27 2h-6.17v-2h6.17m-10.28 2h-6.17v-2h6.17m-10.28 2h-3.1v-2h3.1m45.04-4.87l-.75 2.82-1.93-.53.7-2.58v-2.86h2m0-4h-2v-6h2m0-4h-2v-6h2m0-4h-2v-6h2m0-4h-2v-6h2m0-4h-2v-6h2m0-24h-2v-6h2m0-4h-2v-6h2m0-4h-2v-6h2m0-4h-2v-6h2m0-4h-2v-6h2m0-4h-2v-6h2m0-4h-2v-6h2m0-4h-2v-6h2m0-4h-2v-6h2m0-4h-2v-6h2m0-4h-2v-6h2m0-4h-2v-6h2m0-4h-2v-6h2m0-4h-2v-6h2m0-4h-2v-6h2m0-4h-2v-6h2m0-4h-2v-6h2m0-4h-2v-3h2" fill="#5e5e5e"/><path d="M790.9 1268.77h1v1.03h-2v-1.05M742.78 1530.4l-14.26-4.64 14.26-4.64z" fill="#5e5e5e"/><path d="M743.78 1531.77l-18.5-6 18.5-6.03m-12.03 6.02l10.03 3.25v-6.5" fill="#5e5e5e"/><use xlink:href="#m" transform="matrix(1,0,0,1,739.133133133133,1444.5645322498788) translate(0 14.222222222222223)"/><path d="M1694.3 585.52h-2v-3.92h2m0-7.83h-2v-7.83h2m0-7.83h-2v-7.82h2m0-7.83h-2v-7.83h2m0-7.83h-2v-7.84h2m0-7.83h-2v-7.83h2m8.78-16.75h-3.65l-2.64.72-1.78 1.77-.72 2.64v3.8h-2v-4.06l.92-3.42 2.53-2.53 3.42-.92h3.9m139.4-4.87l-.93 3.42-2.53 2.53-3.4.92h-3.92v-2h3.65l2.65-.7 1.77-1.8.72-2.63v-3.85h2m-18.35 10.98h-7.57v-2h7.57m-15.13 2h-7.57v-2h7.56m-15.14 2h-7.56v-2h7.56m-15.13 2h-7.56v-2h7.56m-15.13 2h-7.56v-2h7.56m-15.13 2h-7.56v-2h7.57m-15.13 2h-7.56v-2h7.56m-15.13 2h-7.55v-2h7.56m124.27-16.94h-2v-2.35h2m0-21.33h-2v-.2h2m0-7.96h-2v-7.96h2m0-7.96h-2v-7.97h2m0-7.96h-2v-7.95h2m0-7.96h-2v-7.97h2m0-7.97h-2v-3.98h2" fill="#5e5e5e"/><path d="M1840.97 366.86l1.5.67v.58h-2v-1.5M1693.3 600.78l-4.63-14.26h9.27z" fill="#5e5e5e"/><path d="M1693.3 604.02l-6-18.5h12m-9.26 2l3.26 10.03 3.26-10.03" fill="#5e5e5e"/><use xlink:href="#C" transform="matrix(1,0,0,1,1789.688939998274,443.91857903446834) translate(0 14.222222222222223)"/><path d="M1722.83 595h-2v-4.02h2m0-8h-2v-8.02h2m0-8.02h-2v-8h2m0-8.03h-2v-8h2m0-8.02h-2v-8h2m0-8.02h-2v-8.02h2m8.93-17.02h-3.8l-2.64.7-1.77 1.8-.72 2.63v3.88h-2v-4.14l.93-3.43 2.53-2.53 3.4-.92h4.06m348.97-4.87l-.92 3.42-2.52 2.53-3.42.92h-4.06v-2h3.8l2.64-.72 1.77-1.77.73-2.64v-3.94h2m-18.8 11.06h-7.85v-2h7.86m-15.72 2h-7.87v-2h7.87m-15.73 2h-7.87v-2h7.86m-117.74 2h-.2v-2h.2m-8.05 2h-7.85v-2h7.86m-15.7 2h-7.87v-2h7.86m-15.73 2h-7.86v-2h7.87m-15.73 2h-7.86v-2h7.86m-15.72 2h-7.86v-2h7.86m-15.72 2h-7.86v-2h7.86m-15.72 2h-7.86v-2h7.86m-15.73 2h-7.86v-2h7.85m-15.72 2h-7.86v-2h7.86m-15.72 2h-7.85v-2h7.86m-15.7 2h-7.87v-2h7.86m333.23-17.18h-2v-8.12h2m0-8.12h-2v-8.12h2m0-8.12h-2v-8.12h2m0-8.12h-2v-8.12h2m0-8.12h-2v-8.12h2m0-8.12h-2v-8.1h2m0-8.13h-2v-4.05h2" fill="#5e5e5e"/><path d="M2080.73 372.48v.7h-2v-1.37M1721.83 610.26L1717.2 596h9.27z" fill="#5e5e5e"/><path d="M1721.83 613.5l-6-18.5h12.02m-9.28 2l3.26 10.02 3.26-10.03" fill="#5e5e5e"/><use xlink:href="#C" transform="matrix(1,0,0,1,1912.7564548606442,482.1529433154463) translate(0 14.222222222222223)"/><path d="M2600 526.55c0 33.13-35.82 60-80 60s-80-26.87-80-60c0-33.14 35.82-60 80-60s80 26.86 80 60z" stroke="#5e5e5e" stroke-width="3" fill="#fff"/><use xlink:href="#D" transform="matrix(1,0,0,1,2440,466.5454545454545) translate(24.07999999999999 63.15)"/><use xlink:href="#h" transform="matrix(1,0,0,1,2440,466.5454545454545) translate(86.98 63.15)"/><path d="M2520 589.05v3.02m0 4.02v6.03m0 4.03v6.04m0 4.03v6.04m0 4.02v6.03m0 4.03v6.04m0 4.03v6.04m0 4.03v6.04m0 4.02v6.04m0 4.03v6.04m0 4.03v6.04m0 4.03v6.04m0 4.03v6.04m0 4.03v6.04m0 4.03V733m0 4.03v6.05m0 4.02v6.04m0 4.03v6.04m0 4.04v6.04m0 4.02v6.04m0 4.03v6.04m0 4.04v6.04m0 4.03v6.05m0 4.02v6.04m0 4.04v6.04m0 4.03v6.05m0 4.03v6.04m0 4.02v6.04m0 4.03v6.05m0 4.03v6.04m0 4.02v6.04m0 4.03v6.05m0 4.03v6.04m0 4.03v6.04m0 4v6.05m0 4.03v6.04m0 4.03v6.04m0 4.02v6.04m0 4.02v6.04m0 4.03v6.04m0 4.02v6.04m0 4.02v6.05m0 4.02v6.04m0 4.02v6.04m0 4.03v6.03m0 4.02v6.04m0 4.02v6.04m0 4.03v6.03m0 4.03v6.04m0 4.02v6.04m0 4.03v6.03m0 4.03v6.04m0 4.03v3.02l-.73 2.7m-2.57 2.57l-2.7.73h-3.1m-4.17 0h-6.22m-4.15 0h-6.23m-4.15 0h-6.23m-4.15 0h-6.24m-4.15 0H2459m-4.15 0h-6.23m-4.15 0h-6.23m-4.15 0h-6.23m-4.15 0h-3.12" stroke="#5e5e5e" stroke-width="2" fill="none"/><path d="M2519.98 588.05h1.02v1.02h-2v-1.05" fill="#5e5e5e"/><path d="M2405.3 1118.55l14.28-4.64v9.28z" stroke="#5e5e5e" stroke-width="2" fill="#5e5e5e"/><use xlink:href="#k" transform="matrix(1,0,0,1,2401.530864197531,822.6961357634212) translate(0 14.222222222222223)"/><path d="M2181.6 1132.8h-1.97m-7.93 0h-3.96m-7.93 0h-3.95m-7.92 0h-3.96m-7.93 0h-3.96m-7.93 0h-3.96m-7.93 0h-3.97m-7.92 0h-3.96m-7.93 0h-3.97m-7.92 0h-3.96m-7.92 0h-3.96m-7.93 0h-3.96m-7.93 0h-3.96m-7.92 0h-3.96m-7.93 0h-3.96m-7.92 0h-3.96m-7.92 0h-3.97m-7.92 0h-3.95m-7.93 0h-3.96m-7.92 0h-3.97m-7.92 0h-3.96m-7.94 0H1930m-7.93 0h-3.96m-7.9 0h-3.97m-7.93 0h-3.96m-7.93 0h-3.95m-7.92 0h-3.97m-7.92 0h-3.96m-7.93 0h-3.96m-7.93 0h-3.97m-7.92 0h-3.96m-7.93 0h-3.97m-7.93 0h-3.96m-7.92 0h-3.96m-7.93 0h-3.96m-7.93 0h-3.96m-7.92 0h-3.97m-7.93 0h-1.98l-1.5-.4m-4.1-4.1l-.4-1.5v-2.23m0-8.96v-4.47m0-8.95v-4.48m0-8.96v-2.24" stroke="#5e5e5e" stroke-width="2" fill="none"/><path d="M2196.87 1132.8l-14.26 4.64v-9.27z" stroke="#5e5e5e" stroke-width="2" fill="#5e5e5e"/><path d="M1735.78 1085.5l1-.02v1.05h-2v-1.06" fill="#5e5e5e"/><use xlink:href="#m" transform="matrix(1,0,0,1,1780.3288073585472,1136.808960629275) translate(0 14.222222222222223)"/><path d="M2820 1240c0 33.14-35.82 60-80 60s-80-26.86-80-60 35.82-60 80-60 80 26.86 80 60z" stroke="#5e5e5e" stroke-width="3" fill="#fff"/><use xlink:href="#t" transform="matrix(1,0,0,1,2660,1180) translate(14.604999999999999 63.15)"/><use xlink:href="#E" transform="matrix(1,0,0,1,2660,1180) translate(94.50500000000001 63.15)"/><path d="M2740 1177.5v-5.4l-.73-2.7m-2.57-2.57l-2.7-.73h-3.03m-4.04 0h-6.06m-4.04 0h-6.06m-4.04 0h-6.06m-4.04 0h-6.06m-4.04 0h-6.06m-4.04 0h-6.07m-4.04 0h-6.06m-4.04 0h-6.06m-4.04 0h-6.06m-4.04 0h-6.06m-4.04 0h-6.06m-4.04 0h-6.06m-4.04 0h-6.06m-4.04 0h-6.06m-4.04 0h-6.06m-4.04 0h-6.06m-4.04 0h-6.06m-4.04 0h-6.06m-4.04 0h-6.07m-4.04 0h-6.05m-4.04 0h-6.05m-4.04 0h-6.05m-4.04 0h-6.05m-4.04 0h-6.05m-4.04 0h-6.05m-4.04 0h-6.05m-4.04 0h-6.05m-4.04 0h-6.05m-4.04 0h-6.05m-4.04 0h-6.05m-4.04 0h-6.05m-4.05 0h-6.06m-4.04 0h-3.03" stroke="#5e5e5e" stroke-width="2" fill="none"/><path d="M2741 1178.53l-.98-.03H2739v-1.03h2" fill="#5e5e5e"/><path d="M2385.4 1166.1l14.27-4.64v9.27z" stroke="#5e5e5e" stroke-width="2" fill="#5e5e5e"/><use xlink:href="#k" transform="matrix(1,0,0,1,2581.6670212938734,1170.0982634271493) translate(0 14.222222222222223)"/><path d="M2040 788.36c0 33.14-35.82 60-80 60s-80-26.86-80-60c0-33.13 35.82-60 80-60s80 26.87 80 60z" stroke="#5e5e5e" stroke-width="3" fill="#fff"/><use xlink:href="#F" transform="matrix(1,0,0,1,1880,728.3636363636363) translate(26.53 63.15)"/><use xlink:href="#s" transform="matrix(1,0,0,1,1880,728.3636363636363) translate(71.53 63.15)"/><use xlink:href="#G" transform="matrix(1,0,0,1,1880,728.3636363636363) translate(91.53 63.15)"/><path d="M2220 944.73c0 33.13-35.82 60-80 60s-80-26.87-80-60c0-33.14 35.82-60 80-60s80 26.86 80 60z" stroke="#5e5e5e" stroke-width="3" fill="#fff"/><use xlink:href="#H" transform="matrix(1,0,0,1,2060,884.7272727272727) translate(28.229999999999997 63.15)"/><use xlink:href="#I" transform="matrix(1,0,0,1,2060,884.7272727272727) translate(65.18 63.15)"/><path d="M1961 725.86h-2v-4.77h2m0-9.57h-2v-9.55h2m-3.45-20.4l2.53 2.52.92 3.4v4.92h-2v-4.64l-.7-2.64-1.8-1.78-1.45-.4v-2.07m-103.56 1.75h-.8v-2h.8m-9.07 2h-8.26v-2h8.26m-16.53 2h-8.26v-2h8.26m-16.53 2h-8.26v-2h8.27m-16.53 2h-4.13v-2h4.14" fill="#5e5e5e"/><path d="M1961 726.9l-.98-.04h-.95l-.07-1.02h2M1787.7 686.28l-14.26-4.63 14.27-4.64z" fill="#5e5e5e"/><path d="M1788.7 687.66l-18.5-6 18.5-6.03m-12.02 6.02l10.03 3.25v-6.5" fill="#5e5e5e"/><use xlink:href="#C" transform="matrix(1,0,0,1,1851.4905336717607,670.9791299367995) translate(0 14.222222222222223)"/><path d="M2057.5 945.73h-3.8v-2h3.8m-11.44 2h-7.62v-2h7.62m-15.25 2h-7.6v-2h7.6m-15.24 2h-1.96v-2h1.96m-54.56-18.2h-2v-8.8h2m0-8.8h-2v-8.78h2m0-8.8h-2v-8.8h2m0-8.8h-2v-4.38h2" fill="#5e5e5e"/><path d="M2058.5 944.7v.44l.02.6h-1.05v-2h1.06M1964.64 867.37h-9.28l4.64-14.27z" fill="#5e5e5e"/><path d="M1966 868.37h-12l6-18.5m-3.26 16.5h6.52l-3.26-10.03" fill="#5e5e5e"/><use xlink:href="#C" transform="matrix(1,0,0,1,1910.040404020908,934.0606060606061) translate(0 14.222222222222223)"/><path d="M1430.43 322.86c0 36.15-33.67 65.45-75.2 65.45-41.56 0-75.23-29.3-75.23-65.44 0-36.15 33.67-65.45 75.22-65.45 41.54 0 75.2 29.3 75.2 65.46z" stroke="#5e5e5e" stroke-width="3" fill="#fff"/><use xlink:href="#J" transform="matrix(1,0,0,1,1280,257.40530981308996) translate(15.554999999999987 59.43125)"/><use xlink:href="#K" transform="matrix(1,0,0,1,1280,257.40530981308996) translate(85.505 59.43125)"/><use xlink:href="#L" transform="matrix(1,0,0,1,1280,257.40530981308996) translate(49.505 81.03125)"/><path d="M1640.9 586.28h-2v-1.97h2m0-7.9h-2v-3.95h2m0-7.9h-2v-3.95h2m0-7.9h-2v-3.96h2m0-7.9h-2v-3.95h2m0-7.9h-2v-3.97h2m0-7.9h-2v-3.95h2m0-10v2.1h-2v-1.85l-.38-1.37 1.93-.52m-4.8-4.8l-.52 1.93-1.37-.37h-1.84v-2h2.1m-272.67 0h1.84v2h-2.12l-1.63-.44.53-1.93m15.07 2.37h-3.96v-2h3.95m11.85 2h-3.95v-2h3.95m11.86 2h-3.95v-2h3.96m11.85 2h-3.94v-2h3.95m11.87 2h-3.95v-2h3.95m11.85 2h-3.95v-2h3.95m11.86 2h-3.95v-2h3.95m11.86 2h-3.96v-2h3.96m11.85 2h-3.96v-2h3.95m11.85 2h-3.96v-2h3.95m11.85 2h-3.95v-2h3.95m11.86 2h-3.95v-2h3.96m11.85 2h-3.94v-2h3.95m11.87 2h-3.95v-2h3.95m11.85 2h-3.95v-2h3.95m11.86 2h-3.95v-2h3.95m11.86 2h-3.96v-2h3.96m11.85 2h-3.96v-2h3.95m11.85 2h-3.95v-2h3.95m11.85 2h-3.95v-2h3.95m11.86 2h-3.95v-2h3.96m11.85 2h-3.94v-2h3.95m-267.78-5.13l.37 1.37-1.94.52-.44-1.63v-2.22h2m0-8.37h-2v-4.18h2m0-8.38h-2v-4.18h2m0-8.4h-2v-4.18h2m0-8.37h-2v-4.2h2m0-8.36h-2v-4.2h2m0-8.37h-2v-4.2h2m0-8.36h-2v-4.2h2m0-8.36h-2v-2.1h2" fill="#5e5e5e"/><path d="M1355.2 389.8h1.02v1.04h-2v-1.06M1639.9 601.55l-4.64-14.27h9.27z" fill="#5e5e5e"/><path d="M1639.9 604.8l-6.02-18.52h12.02m-9.27 2l3.26 10.03 3.25-10.02" fill="#5e5e5e"/><use xlink:href="#m" transform="matrix(1,0,0,1,1427.2712215412455,471.96684389139114) translate(0 14.222222222222223)"/><path d="M2779.75-180.25c0 10.9-8.84 19.75-19.75 19.75-10.9 0-19.75-8.84-19.75-19.75 0-10.9 8.84-19.75 19.75-19.75 10.9 0 19.75 8.84 19.75 19.75z" stroke="#5e5e5e" stroke-width="3" fill="#fff"/><path d="M2760-160.5v49.3c0 3.3 1.44 8.27 3.2 11.07L2800-42m-40-63.2L2720-42m0-98.75h80" stroke="#5e5e5e" stroke-width="3" fill="none"/><path d="M2720-194c0-3.3 2.7-6 6-6h68c3.3 0 6 2.7 6 6v168c0 3.3-2.7 6-6 6h-68c-3.3 0-6-2.7-6-6z" fill="none"/><use xlink:href="#M" transform="matrix(1,0,0,1,2640,-42) translate(36.82098765432099 17.77777777777778)"/><use xlink:href="#N" transform="matrix(1,0,0,1,2640,-42) translate(115.64814814814814 17.77777777777778)"/><path d="M2757.67-110H2016c-3.3 0-6 2.7-6 6v294.65c0 3.3-2.7 6-6 6h-98c-3.3 0-6 2.68-6 6v15M2757.64-110h4.03" stroke="#5e5e5e" stroke-width="2" fill="none"/><path d="M1901 218.7l-.38-.04-1.62-.04v-1h2" fill="#5e5e5e"/><path d="M2757.67-110H2001.1c-3.3 0-6 2.7-6 6v288c0 3.3-2.68 6-6 6h-281.65c-3.32 0-6 2.7-6 6v25.84M2757.64-110h4.03" stroke="#5e5e5e" stroke-width="2" fill="none"/><path d="M1702.45 223.12l-2-.57v-.74h2" fill="#5e5e5e"/><path d="M2119.7 217.5V-104c0-3.3 2.7-6 6-6h631.97" stroke="#5e5e5e" stroke-width="2" fill="none"/><path d="M2120.7 218.52l-.98-.02h-1v-1.03h2" fill="#5e5e5e"/><path d="M2757.64-110h4.03" stroke="#5e5e5e" stroke-width="2" fill="none"/><path d="M2440 303.18c0 40.82-43.64 73.9-97.46 73.9-53.83 0-97.47-33.08-97.47-73.9 0-40.82 43.64-73.9 97.47-73.9 53.82 0 97.46 33.08 97.46 73.9z" stroke="#5e5e5e" stroke-width="3" fill="#fff"/><use xlink:href="#O" transform="matrix(1,0,0,1,2245.071738405072,229.27272727272725) translate(15.579999999999993 65.275)"/><use xlink:href="#P" transform="matrix(1,0,0,1,2245.071738405072,229.27272727272725) translate(78.53 65.275)"/><use xlink:href="#Q" transform="matrix(1,0,0,1,2245.071738405072,229.27272727272725) translate(61.05499999999999 86.875)"/><path d="M2342.54 226.77V-104c0-3.3 2.68-6 6-6h409.13" stroke="#5e5e5e" stroke-width="2" fill="none"/><path d="M2343.54 227.8l-1-.03-1 .02v-1.05h2" fill="#5e5e5e"/><path d="M2757.64-110h4.03" stroke="#5e5e5e" stroke-width="2" fill="none"/><path d="M1743.27 608.06h-2v-3.88h2m0-7.76h-2v-7.76h2m0-7.75h-2v-7.75h2m0-7.76h-2v-7.76h2m8.97-16.64h-3.84l-2.64.7-1.78 1.8-.7 2.63v3.75h-2v-4l.9-3.43 2.54-2.53 3.42-.92h4.1m591.3-4.87l-.93 3.42-2.52 2.53-3.4.92h-4.12v-2h3.84l2.65-.7 1.77-1.8.72-2.63v-3.73h2M2324.6 541h-7.94v-2h7.95m-15.9 2h-7.94v-2h7.95m-15.9 2h-7.94v-2h7.95m-15.9 2h-7.94v-2h7.95m-15.88 2h-7.95v-2h7.95m-15.9 2h-7.95v-2h7.95m-127.2 2h-7.95v-2h7.95m-15.9 2h-7.95v-2h7.95m-15.9 2h-7.94v-2h7.95m-15.9 2h-7.95v-2h7.95m-15.9 2h-7.95v-2h7.95m-15.9 2h-7.95v-2h7.95m-15.9 2h-7.95v-2h7.95m-15.9 2h-7.95v-2h7.95m-15.9 2h-7.95v-2h7.95m-15.9 2h-7.95v-2h7.95m-15.9 2h-7.95v-2h7.95m-15.9 2h-7.95v-2h7.95m-15.9 2h-7.95v-2h7.95m-15.9 2h-7.94v-2h7.93m-15.9 2h-7.94v-2h7.94m-15.9 2h-7.95v-2h7.94m-15.9 2h-7.95v-2h7.94m-15.9 2h-7.95v-2h7.94m-15.9 2h-7.95v-2h7.94m-15.9 2h-7.95v-2h7.94m-15.9 2H1792v-2h7.94m-15.9 2h-7.95v-2h7.94m-15.9 2h-7.95v-2h7.94m461.08 2h-7.37v-2h7.37m114.32-16.58h-2v-7.72h2m0-7.72h-2v-7.72h2m0-7.72h-2v-7.72h2m0-7.72h-2v-7.72h2m0-7.72h-2v-7.72h2m0-7.73h-2v-7.7h2m0-7.73h-2v-7.72h2m0-7.72h-2v-7.72h2m0-7.7h-2v-7.73h2m0-7.72h-2v-3.86h2" fill="#5e5e5e"/><path d="M2342.53 378.6l1-.02v1.04h-2v-1.05M1742.27 623.32l-4.64-14.26h9.27z" fill="#5e5e5e"/><path d="M1742.27 626.56l-6-18.5h12m-9.26 2l3.27 10.03 3.26-10.04" fill="#5e5e5e"/><g><use xlink:href="#C" transform="matrix(1,0,0,1,2118.2919696518657,529.3333333333334) translate(0 14.222222222222223)"/></g><path d="M1512.93 952.36h2.08m8.3 0h4.16m8.3 0h4.16m8.3 0h4.16m8.3 0h4.16m8.3 0h4.15m8.3 0h4.15m8.3 0h4.16m8.32 0h4.15m8.3 0h4.16m8.3 0h4.15m8.3 0h4.16m8.3 0h2.08l1.5-.4m4.1-4.1l.4-1.5v-1.97m0-7.93v-3.95m0-7.92v-3.95m0-7.92v-3.95m0-7.92v-3.95m0-7.9v-3.96m0-7.9v-3.97m0-7.9v-3.97m0-7.9v-3.97m0-7.9v-3.97m0-7.9v-3.97m0-7.92v-3.96m0-7.9v-3.97m0-7.9v-3.97m0-7.9v-2" stroke="#5e5e5e" stroke-width="2" fill="none"/><path d="M1512.96 953.36h-1.06l.03-1-.02-1h1.06" fill="#5e5e5e"/><path d="M1668.42 764.93l4.64 14.26h-9.27z" stroke="#5e5e5e" stroke-width="2" fill="#5e5e5e"/><g><use xlink:href="#k" transform="matrix(1,0,0,1,1531.0187973969864,927.0303030303031) translate(0 14.222222222222223)"/></g><path d="M2712.08-93.87l-.92 3.42-2.53 2.53-3.42.92h-79.07l-2.64.7-1.8 1.8-.7 2.63v1107.64l-.92 3.4-2.53 2.54-3.42.94H1813.5v-2h800.37l2.64-.72 1.8-1.77.7-2.65V-82.13l.92-3.42 2.53-2.53 3.42-.92h79.08l2.64-.7 1.77-1.8.7-2.63V-109h2" fill="#5e5e5e"/><path d="M2712.08-108.97h-2V-110h2M1813.53 1032.64h-1.06l.03-1-.02-1h1.05M2657.5 1241h-2v-2h2m-9.98 2h-4v-2h4m-12 2h-3.98v-2h4m-12 2h-3.98v-2h4m-12 2h-3.98v-2h4m-12 2h-3.98v-2h4m-12 2h-4v-2h4m-11.97 2h-4v-2h4m-11.98 2h-4v-2h4m-12 2h-3.98v-2h4m-12 2h-3.98v-2h3.98m-11.98 2h-4v-2h4m-11.98 2h-4v-2h4m-11.98 2h-4v-2h4m-11.98 2h-4v-2h4m-11.98 2h-4v-2h4m-12 2h-3.98v-2h4m-12 2h-3.98v-2h4m-12 2h-3.98v-2h4m-12 2h-3.98v-2h4m-12 2h-4v-2h4m-11.97 2h-4v-2h4m-12 2h-4v-2h4m-11.98 2h-4v-2h4m-11.98 2h-4v-2h4m-11.98 2h-4v-2h4m-11.98 2h-4v-2h4m-11.98 2h-4v-2h4m-11.98 2h-4v-2h4m-12 2h-3.98v-2h4m-12 2h-3.98v-2h4m-12 2h-3.98v-2h4m-12 2h-3.98v-2h4m-12 2h-3.98v-2h4m-12 2h-4v-2h4m-11.97 2h-4v-2h4m-12 2h-3.98v-2h4m-12 2h-3.98v-2h3.98m-11.98 2h-4v-2h4m-11.98 2h-4v-2h4m-11.98 2h-4v-2h4m-11.98 2h-4v-2h4m-11.98 2h-4v-2h4m-12 2h-3.98v-2h4m-12 2h-3.98v-2h4m-12 2h-3.98v-2h4m-12 2h-3.98v-2h4m-12 2h-4v-2h4m-11.97 2h-4v-2h4m-12 2h-4v-2h4m-11.98 2h-4v-2h4m-119.8 2h-4v-2h4m-12 2h-4v-2h4m-11.97 2h-4v-2h4m-11.98 2h-4v-2h4m-12 2h-3.98v-2h3.98m-11.98 2h-4v-2h4m-11.98 2h-4v-2h4m-11.98 2h-4v-2h4m-11.98 2h-4v-2h4m-11.98 2h-4v-2h4m-11.98 2h-4v-2h4m-12 2h-3.98v-2h4m-12 2h-3.98v-2h4m-12 2h-3.98v-2h4m-12 2h-3.98v-2h4m-12 2h-4v-2h4m-11.97 2h-4v-2h4m-11.97 2h-4v-2h4m-12 2h-3.98v-2h4m-12 2h-3.98v-2h4m-12 2H1697v-2h3.98m-11.98 2h-4v-2h4m-11.98 2h-4v-2h4m-11.98 2h-4v-2h4m-12 2h-3.98v-2h4m-13.85 0h1.87v2h-2.13l-1.62-.44.52-1.93m-3.76-4.76l.37 1.37-1.93.52-.44-1.63V1232h2m0-8.06h-2v-4.03h2m0-8.03h-2v-4.03h2m0-8.05h-2v-4.03h2m0-8.05h-2v-4.03h2m0-8.06h-2v-4.02h2m0-8.05h-2v-4.02h2m0-8.05h-2v-4.03h2m0-8.05h-2v-4.02h2m0-8.05h-2v-4.02h2m0-8.05h-2v-4.03h2m0-8.05h-2v-4.02h2m0-8.05h-2v-4.02h2m0-8.04h-2v-4.03h2m0-8.05h-2v-4.02h2m0-8.05h-2v-4.02h2m0-8.04h-2v-4.03h2m0-8.04h-2v-4.02h2m0-8.05h-2v-4.04h2m0-8.04h-2v-4.03h2m0-8.06h-2v-4.02h2m0-8.05h-2v-4.03h2m0-8.05h-2v-4.03h2m0-8.05h-2v-4.02h2m0-8.05h-2v-4.03h2m0-8.05h-2v-4.02h2m0-8.05h-2v-4.02h2m0-8.05h-2V906h2m0-8.05h-2v-4.02h2m0-8.05h-2v-4.02h2m0-8.05h-2v-4.02h2m0-8.05h-2v-4.02h2m0-8.04h-2v-4.03h2m0-8.04h-2v-4.04h2m0-8.05h-2v-4h2m0-8.06h-2v-4.03h2m0-8.03h-2v-4.03h2m0-8.05h-2v-4.03h2m0-8.05h-2v-2h2" fill="#5e5e5e"/><path d="M2658.5 1239.98v.43l.02.6h-1.05v-2h1.06M1637.7 774.2h-9.26l4.64-14.26z" fill="#5e5e5e"/><path d="M1639.1 775.2h-12.04l6.02-18.5m-3.26 16.5h6.52l-3.26-10.02" fill="#5e5e5e"/><g><use xlink:href="#R" transform="matrix(1,0,0,1,1948.2652655156242,1229.3333333333333) translate(0 14.222222222222223)"/></g><path d="M2545.76 1582l-1.63.45H2542v-2h1.87l1.37-.37m-11.2 2.37h-4v-2h4m-11.98 2h-4v-2h4m-11.97 2h-4v-2h4m-11.98 2h-4v-2h4m-11.97 2h-4v-2h4m-11.97 2h-4v-2h4m-11.97 2h-3.98v-2h4m-11.98 2h-4v-2h4m-11.97 2h-4v-2h4m-11.97 2h-4v-2h4m-11.97 2h-4v-2h4m-11.97 2h-4v-2h4m-11.97 2h-4v-2h4m-11.98 2h-4v-2h4m-11.97 2h-4v-2h4m-11.97 2h-4v-2h4m-11.97 2h-3.98v-2h4m-11.98 2h-4v-2h4m-11.97 2h-4v-2h4m-11.97 2h-4v-2h4m-11.97 2h-4v-2h4m-11.97 2h-4v-2h4m-11.97 2h-4v-2h4m-11.98 2h-4v-2h4m-11.97 2h-4v-2h4m-11.97 2h-4v-2h4m-11.97 2h-3.98v-2h4m-11.98 2h-4v-2h4m-11.97 2h-4v-2h4m-11.96 2h-3.98v-2h4m-11.98 2h-4v-2h4m-11.97 2h-4v-2h4m-11.97 2h-4v-2h4m-11.97 2h-4v-2h4m-11.97 2h-4v-2h4m-11.97 2h-4v-2h4m-11.98 2h-4v-2h4m-11.97 2h-4v-2h4m-11.97 2h-4v-2h4m-11.97 2h-3.98v-2h4m-11.98 2h-4v-2h4m-11.97 2h-4v-2h4m-11.97 2h-4v-2h4m-11.97 2h-4v-2h4m-11.97 2h-4v-2h4m-11.97 2h-4v-2h4m-11.98 2h-4v-2h4m-11.97 2h-4v-2h4m-11.97 2h-4v-2h4m-11.97 2h-3.98v-2h4m-11.98 2h-4v-2h4m-11.97 2h-4v-2h4m-11.97 2h-4v-2h4m-11.97 2h-4v-2h4m-11.97 2h-4v-2h4m-11.97 2h-4v-2h4m-11.98 2h-4v-2h4m-11.97 2h-4v-2h4m-11.97 2h-3.98v-2h3.98m-11.96 2h-4v-2h4m-11.97 2h-4v-2h4m-11.97 2h-4v-2h4m-11.97 2h-3.98v-2h4m-11.98 2h-4v-2h4m-11.97 2h-4v-2h4m-11.97 2h-4v-2h4m-11.97 2h-4v-2h4m-11.97 2h-4v-2h4m-11.97 2h-4v-2h4m-11.98 2h-4v-2h4m-11.97 2h-4v-2h4m-11.97 2h-4v-2h4m-11.97 2h-3.98v-2h4m-11.98 2h-4v-2h4m-11.97 2h-4v-2h4m-11.97 2h-4v-2h4m-11.97 2h-4v-2h4m-11.97 2h-4v-2h4m-11.97 2h-4v-2h4m-11.98 2h-4v-2h4m-11.97 2h-4v-2h4m-11.97 2h-4v-2h4m-11.97 2h-3.98v-2h4m-11.98 2h-4v-2h4m-11.97 2h-4v-2h4m-11.97 2h-4v-2h4m-11.97 2h-4v-2h4m-11.97 2h-4v-2h4m-11.96 2h-4v-2h4m-11.97 2h-4v-2h4m-11.97 2h-4v-2h4m-11.97 2h-4v-2h4m-11.98 2h-4v-2h4m-11.97 2h-4v-2h4m-11.97 2h-4v-2h4m-11.97 2h-3.98v-2h4m-11.98 2h-4v-2h4m-11.97 2h-4v-2h4m-11.97 2h-4v-2h4m-11.97 2h-4v-2h4m-11.97 2h-4v-2h4m-11.97 2h-4v-2h4m-11.98 2h-4v-2h4m-11.97 2h-4v-2h4m-11.97 2h-4v-2h4m-11.97 2h-3.98v-2h4m-11.98 2h-4v-2h4m-11.97 2h-4v-2h4m-11.97 2h-4v-2h4m-11.97 2h-4v-2h4m-11.97 2h-4v-2h4m-11.97 2h-4v-2h4m-11.98 2h-4v-2h4m-11.97 2h-4v-2h4m-11.97 2h-4v-2h4m-11.97 2h-3.98v-2h4m-11.98 2h-4v-2h4m-11.97 2h-3.98v-2h3.97m-11.96 2h-3.98v-2h4m-11.98 2h-4v-2h4m-11.97 2h-4v-2h4m-11.97 2h-4v-2h4m-11.97 2h-4v-2h4m-11.97 2h-4v-2h4m-11.97 2h-4v-2h4m-11.98 2h-4v-2h4m-11.97 2h-4v-2h4m-11.97 2h-4v-2h4m-11.97 2h-3.98v-2h4m-11.98 2h-4v-2h4m-11.97 2h-4v-2h4m-11.97 2h-4v-2h4m-11.97 2h-4v-2h4m-11.97 2h-4v-2h4m-11.97 2h-4v-2h4m-11.98 2h-4v-2h4m-11.97 2h-4v-2h4m-11.97 2h-4v-2h4m-11.97 2h-3.98v-2h4m-11.98 2h-4v-2h4m-11.97 2h-4v-2h4m-11.97 2h-4v-2h4m-11.97 2h-4v-2h4m-11.97 2h-4v-2h4m-11.97 2h-4v-2h4m-11.98 2h-4v-2h4m-11.97 2h-4v-2h4m-11.96 2h-2v-2h2m1776.5-4.86l-.44 1.6-1.93-.5.37-1.38v-1.9h2m0-8.13h-2v-4.08h2m0-8.14h-2v-4.06h2m0-8.14h-2v-4.07h2m0-8.12h-2v-4.07h2m0-8.12h-2v-4.07h2m0-8.12h-2v-4.07h2m0-8.13h-2V1488h2m0-8.13h-2v-4.07h2m0-8.13h-2v-4.07h2m0-8.13h-2v-4.07h2m0-8.13h-2v-4.07h2m0-8.14h-2V1427h2m0-8.14h-2v-4.07h2m0-8.14h-2v-4.07h2m0-8.14h-2v-4.07h2m0-8.14h-2v-4.07h2m0-8.15h-2V1366h2m0-8.15h-2v-4.07h2m0-8.13h-2v-4.07h2m0-8.13h-2v-4.07h2m0-8.13h-2v-4.07h2m0-8.14h-2v-4.06h2m0-8.14h-2v-4.07h2m0-8.13h-2v-4.07h2m0-8.13h-2v-4.07h2m0-8.13h-2v-4.07h2m.37-11.4l-.37 1.36v1.9h-2v-2.16l.44-1.63m8.67-3.24h-1.97l-1.37.37-.52-1.93 1.63-.44h2.24m99.4 2h-2.1v-2h2.1m-10.57 2h-4.23v-2h4.23m-12.7 2h-4.22v-2h4.24m-12.7 2h-4.22v-2h4.23m-12.7 2h-4.2v-2h4.2m-12.67 2h-4.23v-2h4.23m-12.7 2h-4.22v-2h4.23m-12.7 2h-4.23v-2h4.23" fill="#5e5e5e"/><path d="M2658.5 1241h-1.03v-2h1.03M771.5 1586.1l-14.28-4.65 14.27-4.63z" fill="#5e5e5e"/><path d="M772.5 1587.47l-18.5-6.02 18.5-6m-12.04 6l10.03 3.26v-6.5" fill="#5e5e5e"/><g><use xlink:href="#R" transform="matrix(1,0,0,1,2009.253656324073,1556.121212121212) translate(0 14.222222222222223)"/></g><path d="M279.75 844.48c0 10.9-8.84 19.75-19.75 19.75-10.9 0-19.75-8.85-19.75-19.75s8.84-19.75 19.75-19.75c10.9 0 19.75 8.84 19.75 19.75z" stroke="#5e5e5e" stroke-width="3" fill="#fff"/><path d="M260 864.23v49.3c0 3.3 1.44 8.27 3.2 11.07l36.8 58.13m-40-63.2l-40 63.2m0-98.75h80" stroke="#5e5e5e" stroke-width="3" fill="none"/><path d="M220 830.73c0-3.32 2.7-6 6-6h68c3.3 0 6 2.68 6 6v168c0 3.3-2.7 6-6 6h-68c-3.3 0-6-2.7-6-6z" fill="none"/><g><use xlink:href="#S" transform="matrix(1,0,0,1,140,982.7272727272727) translate(34.29012345679013 17.77777777777778)"/><use xlink:href="#T" transform="matrix(1,0,0,1,140,982.7272727272727) translate(118.17901234567901 17.77777777777778)"/></g><path d="M1356.22 544.13l-.93 3.42-2.54 2.53-3.4.92H814.48l-2.65.7-1.78 1.8-.7 2.63v341.53l-.94 3.4-2.53 2.54-3.4.93h-540v-2h539.72l2.65-.72 1.77-1.77.72-2.64V555.86l.92-3.42 2.53-2.53 3.42-.92h534.86l2.64-.7 1.78-1.8.72-2.63V390.8h2" fill="#5e5e5e"/><path d="M262.53 904.53h-4.03v-2h4.03M1355.2 389.8h1.02v1.04h-2v-1.06" fill="#5e5e5e"/><path d="M788.46 903.45l2.53 2.53.9 3.4v198.3h-2V909.66l-.7-2.64-1.78-1.78-2.64-.7H262.5v-2h522.54" fill="#5e5e5e"/><path d="M262.53 904.53h-4.03v-2h4.03M791.9 1108.7l-.98-.02h-1v-1.02h2" fill="#5e5e5e"/><defs><path fill="#333" d="M266 0h-40l-56-210L115 0H75L2-248h35L96-30l15-64 43-154h32l59 218 59-218h35" id="U"/><path fill="#333" d="M24-231v-30h32v30H24zM24 0v-190h32V0H24" id="V"/><path fill="#333" d="M24 0v-261h32V0H24" id="W"/><g id="a"><use transform="matrix(0.06172839506172839,0,0,0.06172839506172839,0,0)" xlink:href="#U"/><use transform="matrix(0.06172839506172839,0,0,0.06172839506172839,20.925925925925924,0)" xlink:href="#V"/><use transform="matrix(0.06172839506172839,0,0,0.06172839506172839,25.80246913580247,0)" xlink:href="#W"/><use transform="matrix(0.06172839506172839,0,0,0.06172839506172839,30.679012345679013,0)" xlink:href="#W"/></g><path fill="#333" d="M197 0v-115H63V0H30v-248h33v105h134v-105h34V0h-34" id="X"/><path fill="#333" d="M100-194c63 0 86 42 84 106H49c0 40 14 67 53 68 26 1 43-12 49-29l28 8c-11 28-37 45-77 45C44 4 14-33 15-96c1-61 26-98 85-98zm52 81c6-60-76-77-97-28-3 7-6 17-6 28h103" id="Y"/><path fill="#333" d="M114-163C36-179 61-72 57 0H25l-1-190h30c1 12-1 29 2 39 6-27 23-49 58-41v29" id="Z"/><path fill="#333" d="M100-194c62-1 85 37 85 99 1 63-27 99-86 99S16-35 15-95c0-66 28-99 85-99zM99-20c44 1 53-31 53-75 0-43-8-75-51-75s-53 32-53 75 10 74 51 75" id="aa"/><g id="b"><use transform="matrix(0.06172839506172839,0,0,0.06172839506172839,0,0)" xlink:href="#X"/><use transform="matrix(0.06172839506172839,0,0,0.06172839506172839,15.987654320987653,0)" xlink:href="#Y"/><use transform="matrix(0.06172839506172839,0,0,0.06172839506172839,28.333333333333332,0)" xlink:href="#Z"/><use transform="matrix(0.06172839506172839,0,0,0.06172839506172839,35.67901234567901,0)" xlink:href="#aa"/></g><path fill="#333" d="M30-248c87 1 191-15 191 75 0 78-77 80-158 76V0H30v-248zm33 125c57 0 124 11 124-50 0-59-68-47-124-48v98" id="ab"/><path fill="#333" d="M141-36C126-15 110 5 73 4 37 3 15-17 15-53c-1-64 63-63 125-63 3-35-9-54-41-54-24 1-41 7-42 31l-33-3c5-37 33-52 76-52 45 0 72 20 72 64v82c-1 20 7 32 28 27v20c-31 9-61-2-59-35zM48-53c0 20 12 33 32 33 41-3 63-29 60-74-43 2-92-5-92 41" id="ac"/><path fill="#333" d="M179-190L93 31C79 59 56 82 12 73V49c39 6 53-20 64-50L1-190h34L92-34l54-156h33" id="ad"/><g id="c"><use transform="matrix(0.06172839506172839,0,0,0.06172839506172839,0,0)" xlink:href="#ab"/><use transform="matrix(0.06172839506172839,0,0,0.06172839506172839,14.814814814814813,0)" xlink:href="#W"/><use transform="matrix(0.06172839506172839,0,0,0.06172839506172839,19.691358024691354,0)" xlink:href="#ac"/><use transform="matrix(0.06172839506172839,0,0,0.06172839506172839,32.03703703703703,0)" xlink:href="#ad"/><use transform="matrix(0.06172839506172839,0,0,0.06172839506172839,43.14814814814814,0)" xlink:href="#Y"/><use transform="matrix(0.06172839506172839,0,0,0.06172839506172839,55.493827160493815,0)" xlink:href="#Z"/></g><path d="M30 0v-248h187v28H63v79h144v27H63v87h162V0H30" id="ae"/><path d="M117-194c89-4 53 116 60 194h-32v-121c0-31-8-49-39-48C34-167 62-67 57 0H25l-1-190h30c1 10-1 24 2 32 11-22 29-35 61-36" id="af"/><path d="M59-47c-2 24 18 29 38 22v24C64 9 27 4 27-40v-127H5v-23h24l9-43h21v43h35v23H59v120" id="ag"/><path d="M100-194c63 0 86 42 84 106H49c0 40 14 67 53 68 26 1 43-12 49-29l28 8c-11 28-37 45-77 45C44 4 14-33 15-96c1-61 26-98 85-98zm52 81c6-60-76-77-97-28-3 7-6 17-6 28h103" id="ah"/><path d="M114-163C36-179 61-72 57 0H25l-1-190h30c1 12-1 29 2 39 6-27 23-49 58-41v29" id="ai"/><g id="d"><use transform="matrix(0.05,0,0,0.05,0,0)" xlink:href="#ae"/><use transform="matrix(0.05,0,0,0.05,12,0)" xlink:href="#af"/><use transform="matrix(0.05,0,0,0.05,22,0)" xlink:href="#ag"/><use transform="matrix(0.05,0,0,0.05,27,0)" xlink:href="#ah"/><use transform="matrix(0.05,0,0,0.05,37,0)" xlink:href="#ai"/></g><path d="M240 0l2-218c-23 76-54 145-80 218h-23L58-218 59 0H30v-248h44l77 211c21-75 51-140 76-211h43V0h-30" id="aj"/><path d="M141-36C126-15 110 5 73 4 37 3 15-17 15-53c-1-64 63-63 125-63 3-35-9-54-41-54-24 1-41 7-42 31l-33-3c5-37 33-52 76-52 45 0 72 20 72 64v82c-1 20 7 32 28 27v20c-31 9-61-2-59-35zM48-53c0 20 12 33 32 33 41-3 63-29 60-74-43 2-92-5-92 41" id="ak"/><path d="M24-231v-30h32v30H24zM24 0v-190h32V0H24" id="al"/><g id="e"><use transform="matrix(0.05,0,0,0.05,0,0)" xlink:href="#aj"/><use transform="matrix(0.05,0,0,0.05,14.950000000000001,0)" xlink:href="#ak"/><use transform="matrix(0.05,0,0,0.05,24.950000000000003,0)" xlink:href="#al"/><use transform="matrix(0.05,0,0,0.05,28.900000000000002,0)" xlink:href="#af"/></g><path d="M84 4C-5 8 30-112 23-190h32v120c0 31 7 50 39 49 72-2 45-101 50-169h31l1 190h-30c-1-10 1-25-2-33-11 22-28 36-60 37" id="am"/><g id="f"><use transform="matrix(0.05,0,0,0.05,0,0)" xlink:href="#aj"/><use transform="matrix(0.05,0,0,0.05,14.950000000000001,0)" xlink:href="#ah"/><use transform="matrix(0.05,0,0,0.05,24.950000000000003,0)" xlink:href="#af"/><use transform="matrix(0.05,0,0,0.05,34.95,0)" xlink:href="#am"/></g><path d="M30 0v-248h33v221h125V0H30" id="an"/><path d="M100-194c62-1 85 37 85 99 1 63-27 99-86 99S16-35 15-95c0-66 28-99 85-99zM99-20c44 1 53-31 53-75 0-43-8-75-51-75s-53 32-53 75 10 74 51 75" id="ao"/><path d="M85-194c31 0 48 13 60 33l-1-100h32l1 261h-30c-2-10 0-23-3-31C134-8 116 4 85 4 32 4 16-35 15-94c0-66 23-100 70-100zm9 24c-40 0-46 34-46 75 0 40 6 74 45 74 42 0 51-32 51-76 0-42-9-74-50-73" id="ap"/><g id="g"><use transform="matrix(0.05,0,0,0.05,0,0)" xlink:href="#an"/><use transform="matrix(0.05,0,0,0.05,10,0)" xlink:href="#ao"/><use transform="matrix(0.05,0,0,0.05,20,0)" xlink:href="#ak"/><use transform="matrix(0.05,0,0,0.05,30,0)" xlink:href="#ap"/></g><path d="M143 4C61 4 22-44 18-125c-5-107 100-154 193-111 17 8 29 25 37 43l-32 9c-13-25-37-40-76-40-61 0-88 39-88 99 0 61 29 100 91 101 35 0 62-11 79-27v-45h-74v-28h105v86C228-13 192 4 143 4" id="aq"/><path d="M210-169c-67 3-38 105-44 169h-31v-121c0-29-5-50-35-48C34-165 62-65 56 0H25l-1-190h30c1 10-1 24 2 32 10-44 99-50 107 0 11-21 27-35 58-36 85-2 47 119 55 194h-31v-121c0-29-5-49-35-48" id="ar"/><g id="h"><use transform="matrix(0.05,0,0,0.05,0,0)" xlink:href="#aq"/><use transform="matrix(0.05,0,0,0.05,14,0)" xlink:href="#ak"/><use transform="matrix(0.05,0,0,0.05,24,0)" xlink:href="#ar"/><use transform="matrix(0.05,0,0,0.05,38.95,0)" xlink:href="#ah"/></g><path d="M190 0L58-211 59 0H30v-248h39L202-35l-2-213h31V0h-41" id="as"/><path d="M206 0h-36l-40-164L89 0H53L-1-190h32L70-26l43-164h34l41 164 42-164h31" id="at"/><g id="j"><use transform="matrix(0.05,0,0,0.05,0,0)" xlink:href="#as"/><use transform="matrix(0.05,0,0,0.05,12.950000000000001,0)" xlink:href="#ah"/><use transform="matrix(0.05,0,0,0.05,22.950000000000003,0)" xlink:href="#at"/></g><path fill="#333" d="M15-91v-56l181-69v40L49-119l147 57v40" id="au"/><path fill="#333" d="M24 0v-248h195v40H76v63h132v40H76v65h150V0H24" id="av"/><path fill="#333" d="M144 0l-44-69L55 0H2l70-98-66-92h53l41 62 40-62h54l-67 91 71 99h-54" id="aw"/><path fill="#333" d="M115-3C79 11 28 4 28-45v-112H4v-33h27l15-45h31v45h36v33H77v99c-1 23 16 31 38 25v30" id="ax"/><path fill="#333" d="M185-48c-13 30-37 53-82 52C43 2 14-33 14-96s30-98 90-98c62 0 83 45 84 108H66c0 31 8 55 39 56 18 0 30-7 34-22zm-45-69c5-46-57-63-70-21-2 6-4 13-4 21h74" id="ay"/><path fill="#333" d="M135-194c87-1 58 113 63 194h-50c-7-57 23-157-34-157-59 0-34 97-39 157H25l-1-190h47c2 12-1 28 3 38 12-26 28-41 61-42" id="az"/><path fill="#333" d="M88-194c31-1 46 15 58 34l-1-101h50l1 261h-48c-2-10 0-23-3-31C134-8 116 4 84 4 32 4 16-41 15-95c0-56 19-97 73-99zm17 164c33 0 40-30 41-66 1-37-9-64-41-64s-38 30-39 65c0 43 13 65 39 65" id="aA"/><path fill="#333" d="M137-138c1-29-70-34-71-4 15 46 118 7 119 86 1 83-164 76-172 9l43-7c4 19 20 25 44 25 33 8 57-30 24-41C81-84 22-81 20-136c-2-80 154-74 161-7" id="aB"/><path fill="#333" d="M15-22v-40l146-57-146-57v-40l181 69v56" id="aC"/><g id="k"><use transform="matrix(0.04938271604938272,0,0,0.04938271604938272,0,0)" xlink:href="#au"/><use transform="matrix(0.04938271604938272,0,0,0.04938271604938272,10.370370370370372,0)" xlink:href="#au"/><use transform="matrix(0.04938271604938272,0,0,0.04938271604938272,20.740740740740744,0)" xlink:href="#av"/><use transform="matrix(0.04938271604938272,0,0,0.04938271604938272,32.592592592592595,0)" xlink:href="#aw"/><use transform="matrix(0.04938271604938272,0,0,0.04938271604938272,42.46913580246914,0)" xlink:href="#ax"/><use transform="matrix(0.04938271604938272,0,0,0.04938271604938272,48.345679012345684,0)" xlink:href="#ay"/><use transform="matrix(0.04938271604938272,0,0,0.04938271604938272,58.22222222222223,0)" xlink:href="#az"/><use transform="matrix(0.04938271604938272,0,0,0.04938271604938272,69.03703703703704,0)" xlink:href="#aA"/><use transform="matrix(0.04938271604938272,0,0,0.04938271604938272,79.85185185185185,0)" xlink:href="#aB"/><use transform="matrix(0.04938271604938272,0,0,0.04938271604938272,89.72839506172839,0)" xlink:href="#aC"/><use transform="matrix(0.04938271604938272,0,0,0.04938271604938272,100.09876543209876,0)" xlink:href="#aC"/></g><path d="M30-248c87 1 191-15 191 75 0 78-77 80-158 76V0H30v-248zm33 125c57 0 124 11 124-50 0-59-68-47-124-48v98" id="aD"/><path d="M135-143c-3-34-86-38-87 0 15 53 115 12 119 90S17 21 10-45l28-5c4 36 97 45 98 0-10-56-113-15-118-90-4-57 82-63 122-42 12 7 21 19 24 35" id="aE"/><g id="l"><use transform="matrix(0.05,0,0,0.05,0,0)" xlink:href="#aD"/><use transform="matrix(0.05,0,0,0.05,12,0)" xlink:href="#ak"/><use transform="matrix(0.05,0,0,0.05,22,0)" xlink:href="#am"/><use transform="matrix(0.05,0,0,0.05,32,0)" xlink:href="#aE"/><use transform="matrix(0.05,0,0,0.05,41,0)" xlink:href="#ah"/></g><path fill="#333" d="M24 0v-248h52V0H24" id="aF"/><path fill="#333" d="M190-63c-7 42-38 67-86 67-59 0-84-38-90-98-12-110 154-137 174-36l-49 2c-2-19-15-32-35-32-30 0-35 28-38 64-6 74 65 87 74 30" id="aG"/><path fill="#333" d="M25 0v-261h50V0H25" id="aH"/><path fill="#333" d="M85 4C-2 5 27-109 22-190h50c7 57-23 150 33 157 60-5 35-97 40-157h50l1 190h-47c-2-12 1-28-3-38-12 25-28 42-61 42" id="aI"/><g id="m"><use transform="matrix(0.04938271604938272,0,0,0.04938271604938272,0,0)" xlink:href="#au"/><use transform="matrix(0.04938271604938272,0,0,0.04938271604938272,10.370370370370372,0)" xlink:href="#au"/><use transform="matrix(0.04938271604938272,0,0,0.04938271604938272,20.740740740740744,0)" xlink:href="#aF"/><use transform="matrix(0.04938271604938272,0,0,0.04938271604938272,25.679012345679016,0)" xlink:href="#az"/><use transform="matrix(0.04938271604938272,0,0,0.04938271604938272,36.49382716049383,0)" xlink:href="#aG"/><use transform="matrix(0.04938271604938272,0,0,0.04938271604938272,46.370370370370374,0)" xlink:href="#aH"/><use transform="matrix(0.04938271604938272,0,0,0.04938271604938272,51.308641975308646,0)" xlink:href="#aI"/><use transform="matrix(0.04938271604938272,0,0,0.04938271604938272,62.12345679012346,0)" xlink:href="#aA"/><use transform="matrix(0.04938271604938272,0,0,0.04938271604938272,72.93827160493828,0)" xlink:href="#ay"/><use transform="matrix(0.04938271604938272,0,0,0.04938271604938272,82.81481481481482,0)" xlink:href="#aC"/><use transform="matrix(0.04938271604938272,0,0,0.04938271604938272,93.18518518518519,0)" xlink:href="#aC"/></g><g id="n"><use transform="matrix(0.05,0,0,0.05,0,0)" xlink:href="#aq"/><use transform="matrix(0.05,0,0,0.05,14,0)" xlink:href="#ak"/><use transform="matrix(0.05,0,0,0.05,24,0)" xlink:href="#ar"/><use transform="matrix(0.05,0,0,0.05,38.95,0)" xlink:href="#ah"/></g><path d="M140-251c81 0 123 46 123 126C263-46 219 4 140 4 59 4 17-45 17-125s42-126 123-126zm0 227c63 0 89-41 89-101s-29-99-89-99c-61 0-89 39-89 99S79-25 140-24" id="aJ"/><path d="M108 0H70L1-190h34L89-25l56-165h34" id="aK"/><g id="o"><use transform="matrix(0.05,0,0,0.05,0,0)" xlink:href="#aJ"/><use transform="matrix(0.05,0,0,0.05,14,0)" xlink:href="#aK"/><use transform="matrix(0.05,0,0,0.05,23,0)" xlink:href="#ah"/><use transform="matrix(0.05,0,0,0.05,33,0)" xlink:href="#ai"/></g><path d="M24 0v-261h32V0H24" id="aL"/><path d="M179-190L93 31C79 59 56 82 12 73V49c39 6 53-20 64-50L1-190h34L92-34l54-156h33" id="aM"/><g id="p"><use transform="matrix(0.05,0,0,0.05,0,0)" xlink:href="#aD"/><use transform="matrix(0.05,0,0,0.05,12,0)" xlink:href="#aL"/><use transform="matrix(0.05,0,0,0.05,15.949999999999998,0)" xlink:href="#ak"/><use transform="matrix(0.05,0,0,0.05,25.950000000000003,0)" xlink:href="#aM"/></g><path d="M233-177c-1 41-23 64-60 70L243 0h-38l-65-103H63V0H30v-248c88 3 205-21 203 71zM63-129c60-2 137 13 137-47 0-61-80-42-137-45v92" id="aN"/><g id="q"><use transform="matrix(0.05,0,0,0.05,0,0)" xlink:href="#aN"/><use transform="matrix(0.05,0,0,0.05,12.950000000000001,0)" xlink:href="#ah"/><use transform="matrix(0.05,0,0,0.05,22.950000000000003,0)" xlink:href="#aE"/><use transform="matrix(0.05,0,0,0.05,31.950000000000003,0)" xlink:href="#am"/><use transform="matrix(0.05,0,0,0.05,41.95,0)" xlink:href="#ar"/><use transform="matrix(0.05,0,0,0.05,56.900000000000006,0)" xlink:href="#ah"/></g><path d="M141 0L90-78 38 0H4l68-98-65-92h35l48 74 47-74h35l-64 92 68 98h-35" id="aO"/><g id="r"><use transform="matrix(0.05,0,0,0.05,0,0)" xlink:href="#ae"/><use transform="matrix(0.05,0,0,0.05,12,0)" xlink:href="#aO"/><use transform="matrix(0.05,0,0,0.05,21,0)" xlink:href="#al"/><use transform="matrix(0.05,0,0,0.05,24.95,0)" xlink:href="#ag"/></g><g id="s"><use transform="matrix(0.05,0,0,0.05,0,0)" xlink:href="#ag"/><use transform="matrix(0.05,0,0,0.05,5,0)" xlink:href="#ao"/></g><path d="M115-194c55 1 70 41 70 98S169 2 115 4C84 4 66-9 55-30l1 105H24l-1-265h31l2 30c10-21 28-34 59-34zm-8 174c40 0 45-34 45-75s-6-73-45-74c-42 0-51 32-51 76 0 43 10 73 51 73" id="aP"/><g id="t"><use transform="matrix(0.05,0,0,0.05,0,0)" xlink:href="#aN"/><use transform="matrix(0.05,0,0,0.05,12.950000000000001,0)" xlink:href="#ah"/><use transform="matrix(0.05,0,0,0.05,22.950000000000003,0)" xlink:href="#aE"/><use transform="matrix(0.05,0,0,0.05,31.950000000000003,0)" xlink:href="#aP"/><use transform="matrix(0.05,0,0,0.05,41.95,0)" xlink:href="#ak"/><use transform="matrix(0.05,0,0,0.05,51.95,0)" xlink:href="#at"/><use transform="matrix(0.05,0,0,0.05,64.9,0)" xlink:href="#af"/></g><path d="M185-189c-5-48-123-54-124 2 14 75 158 14 163 119 3 78-121 87-175 55-17-10-28-26-33-46l33-7c5 56 141 63 141-1 0-78-155-14-162-118-5-82 145-84 179-34 5 7 8 16 11 25" id="aQ"/><g id="u"><use transform="matrix(0.05,0,0,0.05,0,0)" xlink:href="#aQ"/><use transform="matrix(0.05,0,0,0.05,12,0)" xlink:href="#ak"/><use transform="matrix(0.05,0,0,0.05,22,0)" xlink:href="#aK"/><use transform="matrix(0.05,0,0,0.05,31,0)" xlink:href="#ah"/></g><path d="M30-248c118-7 216 8 213 122C240-48 200 0 122 0H30v-248zM63-27c89 8 146-16 146-99s-60-101-146-95v194" id="aR"/><g id="v"><use transform="matrix(0.05,0,0,0.05,0,0)" xlink:href="#aR"/><use transform="matrix(0.05,0,0,0.05,12.950000000000001,0)" xlink:href="#al"/><use transform="matrix(0.05,0,0,0.05,16.900000000000002,0)" xlink:href="#aE"/><use transform="matrix(0.05,0,0,0.05,25.900000000000002,0)" xlink:href="#aP"/><use transform="matrix(0.05,0,0,0.05,35.900000000000006,0)" xlink:href="#aL"/><use transform="matrix(0.05,0,0,0.05,39.85000000000001,0)" xlink:href="#ak"/><use transform="matrix(0.05,0,0,0.05,49.85000000000001,0)" xlink:href="#aM"/></g><path d="M212-179c-10-28-35-45-73-45-59 0-87 40-87 99 0 60 29 101 89 101 43 0 62-24 78-52l27 14C228-24 195 4 139 4 59 4 22-46 18-125c-6-104 99-153 187-111 19 9 31 26 39 46" id="aS"/><path d="M96-169c-40 0-48 33-48 73s9 75 48 75c24 0 41-14 43-38l32 2c-6 37-31 61-74 61-59 0-76-41-82-99-10-93 101-131 147-64 4 7 5 14 7 22l-32 3c-4-21-16-35-41-35" id="aT"/><g id="w"><use transform="matrix(0.05,0,0,0.05,0,0)" xlink:href="#aS"/><use transform="matrix(0.05,0,0,0.05,12.950000000000001,0)" xlink:href="#ao"/><use transform="matrix(0.05,0,0,0.05,22.950000000000003,0)" xlink:href="#aL"/><use transform="matrix(0.05,0,0,0.05,26.900000000000002,0)" xlink:href="#aL"/><use transform="matrix(0.05,0,0,0.05,30.85,0)" xlink:href="#ah"/><use transform="matrix(0.05,0,0,0.05,40.85,0)" xlink:href="#aT"/><use transform="matrix(0.05,0,0,0.05,49.85,0)" xlink:href="#ag"/><use transform="matrix(0.05,0,0,0.05,54.85,0)" xlink:href="#ah"/><use transform="matrix(0.05,0,0,0.05,64.85,0)" xlink:href="#ap"/></g><g id="x"><use transform="matrix(0.05,0,0,0.05,0,0)" xlink:href="#aS"/><use transform="matrix(0.05,0,0,0.05,12.950000000000001,0)" xlink:href="#ao"/><use transform="matrix(0.05,0,0,0.05,22.950000000000003,0)" xlink:href="#al"/><use transform="matrix(0.05,0,0,0.05,26.900000000000002,0)" xlink:href="#af"/><use transform="matrix(0.05,0,0,0.05,36.900000000000006,0)" xlink:href="#aE"/></g><g id="y"><use transform="matrix(0.05,0,0,0.05,0,0)" xlink:href="#aS"/><use transform="matrix(0.05,0,0,0.05,12.950000000000001,0)" xlink:href="#am"/><use transform="matrix(0.05,0,0,0.05,22.950000000000003,0)" xlink:href="#ai"/><use transform="matrix(0.05,0,0,0.05,28.900000000000002,0)" xlink:href="#ai"/><use transform="matrix(0.05,0,0,0.05,34.85,0)" xlink:href="#ah"/><use transform="matrix(0.05,0,0,0.05,44.85,0)" xlink:href="#af"/><use transform="matrix(0.05,0,0,0.05,54.85,0)" xlink:href="#ag"/></g><g id="z"><use transform="matrix(0.05,0,0,0.05,0,0)" xlink:href="#an"/><use transform="matrix(0.05,0,0,0.05,10,0)" xlink:href="#ao"/><use transform="matrix(0.05,0,0,0.05,20,0)" xlink:href="#aT"/><use transform="matrix(0.05,0,0,0.05,29,0)" xlink:href="#ak"/><use transform="matrix(0.05,0,0,0.05,39,0)" xlink:href="#ag"/><use transform="matrix(0.05,0,0,0.05,44,0)" xlink:href="#al"/><use transform="matrix(0.05,0,0,0.05,47.95,0)" xlink:href="#ao"/><use transform="matrix(0.05,0,0,0.05,57.95,0)" xlink:href="#af"/></g><path d="M145-31C134-9 116 4 85 4 32 4 16-35 15-94c0-59 17-99 70-100 32-1 48 14 60 33 0-11-1-24 2-32h30l-1 268h-32zM93-21c41 0 51-33 51-76s-8-73-50-73c-40 0-46 35-46 75s5 74 45 74" id="aU"/><g id="A"><use transform="matrix(0.05,0,0,0.05,0,0)" xlink:href="#ae"/><use transform="matrix(0.05,0,0,0.05,12,0)" xlink:href="#aU"/><use transform="matrix(0.05,0,0,0.05,22,0)" xlink:href="#am"/><use transform="matrix(0.05,0,0,0.05,32,0)" xlink:href="#al"/><use transform="matrix(0.05,0,0,0.05,35.95,0)" xlink:href="#aP"/><use transform="matrix(0.05,0,0,0.05,45.95,0)" xlink:href="#aP"/><use transform="matrix(0.05,0,0,0.05,55.95,0)" xlink:href="#ah"/><use transform="matrix(0.05,0,0,0.05,65.95,0)" xlink:href="#ap"/></g><path d="M266 0h-40l-56-210L115 0H75L2-248h35L96-30l15-64 43-154h32l59 218 59-218h35" id="aV"/><g id="B"><use transform="matrix(0.05,0,0,0.05,0,0)" xlink:href="#aV"/><use transform="matrix(0.05,0,0,0.05,16.599999999999998,0)" xlink:href="#ah"/><use transform="matrix(0.05,0,0,0.05,26.599999999999994,0)" xlink:href="#ak"/><use transform="matrix(0.05,0,0,0.05,36.599999999999994,0)" xlink:href="#aP"/><use transform="matrix(0.05,0,0,0.05,46.599999999999994,0)" xlink:href="#ao"/><use transform="matrix(0.05,0,0,0.05,56.599999999999994,0)" xlink:href="#af"/></g><path fill="#333" d="M25-224v-37h50v37H25zM25 0v-190h50V0H25" id="aW"/><g id="C"><use transform="matrix(0.04938271604938272,0,0,0.04938271604938272,0,0)" xlink:href="#au"/><use transform="matrix(0.04938271604938272,0,0,0.04938271604938272,10.370370370370372,0)" xlink:href="#au"/><use transform="matrix(0.04938271604938272,0,0,0.04938271604938272,20.740740740740744,0)" xlink:href="#aW"/><use transform="matrix(0.04938271604938272,0,0,0.04938271604938272,25.679012345679016,0)" xlink:href="#az"/><use transform="matrix(0.04938271604938272,0,0,0.04938271604938272,36.49382716049383,0)" xlink:href="#aG"/><use transform="matrix(0.04938271604938272,0,0,0.04938271604938272,46.370370370370374,0)" xlink:href="#aH"/><use transform="matrix(0.04938271604938272,0,0,0.04938271604938272,51.308641975308646,0)" xlink:href="#aI"/><use transform="matrix(0.04938271604938272,0,0,0.04938271604938272,62.12345679012346,0)" xlink:href="#aA"/><use transform="matrix(0.04938271604938272,0,0,0.04938271604938272,72.93827160493828,0)" xlink:href="#ay"/><use transform="matrix(0.04938271604938272,0,0,0.04938271604938272,82.81481481481482,0)" xlink:href="#aC"/><use transform="matrix(0.04938271604938272,0,0,0.04938271604938272,93.18518518518519,0)" xlink:href="#aC"/></g><g id="D"><use transform="matrix(0.05,0,0,0.05,0,0)" xlink:href="#aN"/><use transform="matrix(0.05,0,0,0.05,12.950000000000001,0)" xlink:href="#ah"/><use transform="matrix(0.05,0,0,0.05,22.950000000000003,0)" xlink:href="#aE"/><use transform="matrix(0.05,0,0,0.05,31.950000000000003,0)" xlink:href="#ag"/><use transform="matrix(0.05,0,0,0.05,36.95,0)" xlink:href="#ak"/><use transform="matrix(0.05,0,0,0.05,46.95,0)" xlink:href="#ai"/><use transform="matrix(0.05,0,0,0.05,52.900000000000006,0)" xlink:href="#ag"/></g><g id="E"><use transform="matrix(0.05,0,0,0.05,0,0)" xlink:href="#aD"/><use transform="matrix(0.05,0,0,0.05,12,0)" xlink:href="#aL"/><use transform="matrix(0.05,0,0,0.05,15.949999999999998,0)" xlink:href="#ak"/><use transform="matrix(0.05,0,0,0.05,25.950000000000003,0)" xlink:href="#aM"/><use transform="matrix(0.05,0,0,0.05,34.95,0)" xlink:href="#ah"/><use transform="matrix(0.05,0,0,0.05,44.95,0)" xlink:href="#ai"/></g><path d="M33 0v-248h34V0H33" id="aX"/><g id="F"><use transform="matrix(0.05,0,0,0.05,0,0)" xlink:href="#aX"/><use transform="matrix(0.05,0,0,0.05,5,0)" xlink:href="#af"/><use transform="matrix(0.05,0,0,0.05,15,0)" xlink:href="#aP"/><use transform="matrix(0.05,0,0,0.05,25,0)" xlink:href="#am"/><use transform="matrix(0.05,0,0,0.05,35,0)" xlink:href="#ag"/></g><path d="M106-169C34-169 62-67 57 0H25v-261h32l-1 103c12-21 28-36 61-36 89 0 53 116 60 194h-32v-121c2-32-8-49-39-48" id="aY"/><g id="G"><use transform="matrix(0.05,0,0,0.05,0,0)" xlink:href="#aR"/><use transform="matrix(0.05,0,0,0.05,12.950000000000001,0)" xlink:href="#ak"/><use transform="matrix(0.05,0,0,0.05,22.950000000000003,0)" xlink:href="#aE"/><use transform="matrix(0.05,0,0,0.05,31.950000000000003,0)" xlink:href="#aY"/></g><path d="M232-93c-1 65-40 97-104 97C67 4 28-28 28-90v-158h33c8 89-33 224 67 224 102 0 64-133 71-224h33v155" id="aZ"/><g id="H"><use transform="matrix(0.05,0,0,0.05,0,0)" xlink:href="#aZ"/><use transform="matrix(0.05,0,0,0.05,12.950000000000001,0)" xlink:href="#aE"/><use transform="matrix(0.05,0,0,0.05,21.950000000000003,0)" xlink:href="#ah"/></g><g id="I"><use transform="matrix(0.05,0,0,0.05,0,0)" xlink:href="#aV"/><use transform="matrix(0.05,0,0,0.05,16.599999999999998,0)" xlink:href="#ah"/><use transform="matrix(0.05,0,0,0.05,26.599999999999994,0)" xlink:href="#ak"/><use transform="matrix(0.05,0,0,0.05,36.599999999999994,0)" xlink:href="#aP"/><use transform="matrix(0.05,0,0,0.05,46.599999999999994,0)" xlink:href="#ao"/><use transform="matrix(0.05,0,0,0.05,56.599999999999994,0)" xlink:href="#af"/></g><path d="M177-190C167-65 218 103 67 71c-23-6-38-20-44-43l32-5c15 47 100 32 89-28v-30C133-14 115 1 83 1 29 1 15-40 15-95c0-56 16-97 71-98 29-1 48 16 59 35 1-10 0-23 2-32h30zM94-22c36 0 50-32 50-73 0-42-14-75-50-75-39 0-46 34-46 75s6 73 46 73" id="ba"/><g id="J"><use transform="matrix(0.05,0,0,0.05,0,0)" xlink:href="#aj"/><use transform="matrix(0.05,0,0,0.05,14.950000000000001,0)" xlink:href="#ak"/><use transform="matrix(0.05,0,0,0.05,24.950000000000003,0)" xlink:href="#af"/><use transform="matrix(0.05,0,0,0.05,34.95,0)" xlink:href="#ak"/><use transform="matrix(0.05,0,0,0.05,44.95,0)" xlink:href="#ba"/><use transform="matrix(0.05,0,0,0.05,54.95,0)" xlink:href="#ah"/></g><g id="K"><use transform="matrix(0.05,0,0,0.05,0,0)" xlink:href="#aq"/><use transform="matrix(0.05,0,0,0.05,14,0)" xlink:href="#ak"/><use transform="matrix(0.05,0,0,0.05,24,0)" xlink:href="#ar"/><use transform="matrix(0.05,0,0,0.05,38.95,0)" xlink:href="#ah"/></g><g id="L"><use transform="matrix(0.05,0,0,0.05,0,0)" xlink:href="#aQ"/><use transform="matrix(0.05,0,0,0.05,12,0)" xlink:href="#ag"/><use transform="matrix(0.05,0,0,0.05,17,0)" xlink:href="#ak"/><use transform="matrix(0.05,0,0,0.05,27,0)" xlink:href="#ag"/><use transform="matrix(0.05,0,0,0.05,32,0)" xlink:href="#ah"/><use transform="matrix(0.05,0,0,0.05,42,0)" xlink:href="#aE"/></g><path fill="#333" d="M30-248c118-7 216 8 213 122C240-48 200 0 122 0H30v-248zM63-27c89 8 146-16 146-99s-60-101-146-95v194" id="bb"/><path fill="#333" d="M135-143c-3-34-86-38-87 0 15 53 115 12 119 90S17 21 10-45l28-5c4 36 97 45 98 0-10-56-113-15-118-90-4-57 82-63 122-42 12 7 21 19 24 35" id="bc"/><path fill="#333" d="M115-194c55 1 70 41 70 98S169 2 115 4C84 4 66-9 55-30l1 105H24l-1-265h31l2 30c10-21 28-34 59-34zm-8 174c40 0 45-34 45-75s-6-73-45-74c-42 0-51 32-51 76 0 43 10 73 51 73" id="bd"/><g id="M"><use transform="matrix(0.06172839506172839,0,0,0.06172839506172839,0,0)" xlink:href="#bb"/><use transform="matrix(0.06172839506172839,0,0,0.06172839506172839,15.987654320987653,0)" xlink:href="#V"/><use transform="matrix(0.06172839506172839,0,0,0.06172839506172839,20.864197530864196,0)" xlink:href="#bc"/><use transform="matrix(0.06172839506172839,0,0,0.06172839506172839,31.975308641975307,0)" xlink:href="#bd"/><use transform="matrix(0.06172839506172839,0,0,0.06172839506172839,44.32098765432099,0)" xlink:href="#W"/><use transform="matrix(0.06172839506172839,0,0,0.06172839506172839,49.19753086419753,0)" xlink:href="#ac"/><use transform="matrix(0.06172839506172839,0,0,0.06172839506172839,61.54320987654321,0)" xlink:href="#ad"/></g><path fill="#333" d="M240 0l2-218c-23 76-54 145-80 218h-23L58-218 59 0H30v-248h44l77 211c21-75 51-140 76-211h43V0h-30" id="be"/><path fill="#333" d="M117-194c89-4 53 116 60 194h-32v-121c0-31-8-49-39-48C34-167 62-67 57 0H25l-1-190h30c1 10-1 24 2 32 11-22 29-35 61-36" id="bf"/><path fill="#333" d="M177-190C167-65 218 103 67 71c-23-6-38-20-44-43l32-5c15 47 100 32 89-28v-30C133-14 115 1 83 1 29 1 15-40 15-95c0-56 16-97 71-98 29-1 48 16 59 35 1-10 0-23 2-32h30zM94-22c36 0 50-32 50-73 0-42-14-75-50-75-39 0-46 34-46 75s6 73 46 73" id="bg"/><g id="N"><use transform="matrix(0.06172839506172839,0,0,0.06172839506172839,0,0)" xlink:href="#be"/><use transform="matrix(0.06172839506172839,0,0,0.06172839506172839,18.456790123456788,0)" xlink:href="#ac"/><use transform="matrix(0.06172839506172839,0,0,0.06172839506172839,30.80246913580247,0)" xlink:href="#bf"/><use transform="matrix(0.06172839506172839,0,0,0.06172839506172839,43.148148148148145,0)" xlink:href="#ac"/><use transform="matrix(0.06172839506172839,0,0,0.06172839506172839,55.49382716049382,0)" xlink:href="#bg"/><use transform="matrix(0.06172839506172839,0,0,0.06172839506172839,67.8395061728395,0)" xlink:href="#Y"/><use transform="matrix(0.06172839506172839,0,0,0.06172839506172839,80.18518518518519,0)" xlink:href="#Z"/></g><g id="O"><use transform="matrix(0.05,0,0,0.05,0,0)" xlink:href="#aZ"/><use transform="matrix(0.05,0,0,0.05,12.950000000000001,0)" xlink:href="#aP"/><use transform="matrix(0.05,0,0,0.05,22.950000000000003,0)" xlink:href="#ap"/><use transform="matrix(0.05,0,0,0.05,32.95,0)" xlink:href="#ak"/><use transform="matrix(0.05,0,0,0.05,42.95,0)" xlink:href="#ag"/><use transform="matrix(0.05,0,0,0.05,47.95,0)" xlink:href="#ah"/></g><path d="M115-194c53 0 69 39 70 98 0 66-23 100-70 100C84 3 66-7 56-30L54 0H23l1-261h32v101c10-23 28-34 59-34zm-8 174c40 0 45-34 45-75 0-40-5-75-45-74-42 0-51 32-51 76 0 43 10 73 51 73" id="bh"/><path d="M24-231v-30h32v30H24zM-9 49c24 4 33-6 33-30v-209h32V24c2 40-23 58-65 49V49" id="bi"/><g id="P"><use transform="matrix(0.05,0,0,0.05,0,0)" xlink:href="#aq"/><use transform="matrix(0.05,0,0,0.05,14,0)" xlink:href="#ak"/><use transform="matrix(0.05,0,0,0.05,24,0)" xlink:href="#ar"/><use transform="matrix(0.05,0,0,0.05,38.95,0)" xlink:href="#ah"/><use transform="matrix(0.05,0,0,0.05,48.95,0)" xlink:href="#aJ"/><use transform="matrix(0.05,0,0,0.05,62.95,0)" xlink:href="#bh"/><use transform="matrix(0.05,0,0,0.05,72.95,0)" xlink:href="#bi"/><use transform="matrix(0.05,0,0,0.05,76.9,0)" xlink:href="#ah"/><use transform="matrix(0.05,0,0,0.05,86.9,0)" xlink:href="#aT"/><use transform="matrix(0.05,0,0,0.05,95.9,0)" xlink:href="#ag"/></g><g id="Q"><use transform="matrix(0.05,0,0,0.05,0,0)" xlink:href="#aD"/><use transform="matrix(0.05,0,0,0.05,12,0)" xlink:href="#ao"/><use transform="matrix(0.05,0,0,0.05,22,0)" xlink:href="#aE"/><use transform="matrix(0.05,0,0,0.05,31,0)" xlink:href="#al"/><use transform="matrix(0.05,0,0,0.05,34.95,0)" xlink:href="#ag"/><use transform="matrix(0.05,0,0,0.05,39.95,0)" xlink:href="#al"/><use transform="matrix(0.05,0,0,0.05,43.900000000000006,0)" xlink:href="#ao"/><use transform="matrix(0.05,0,0,0.05,53.900000000000006,0)" xlink:href="#af"/><use transform="matrix(0.05,0,0,0.05,63.900000000000006,0)" xlink:href="#aE"/></g><g id="R"><use transform="matrix(0.04938271604938272,0,0,0.04938271604938272,0,0)" xlink:href="#au"/><use transform="matrix(0.04938271604938272,0,0,0.04938271604938272,10.370370370370372,0)" xlink:href="#au"/><use transform="matrix(0.04938271604938272,0,0,0.04938271604938272,20.740740740740744,0)" xlink:href="#av"/><use transform="matrix(0.04938271604938272,0,0,0.04938271604938272,32.592592592592595,0)" xlink:href="#aw"/><use transform="matrix(0.04938271604938272,0,0,0.04938271604938272,42.46913580246914,0)" xlink:href="#ax"/><use transform="matrix(0.04938271604938272,0,0,0.04938271604938272,48.345679012345684,0)" xlink:href="#ay"/><use transform="matrix(0.04938271604938272,0,0,0.04938271604938272,58.22222222222223,0)" xlink:href="#az"/><use transform="matrix(0.04938271604938272,0,0,0.04938271604938272,69.03703703703704,0)" xlink:href="#aA"/><use transform="matrix(0.04938271604938272,0,0,0.04938271604938272,79.85185185185185,0)" xlink:href="#aC"/><use transform="matrix(0.04938271604938272,0,0,0.04938271604938272,90.22222222222221,0)" xlink:href="#aC"/></g><path fill="#333" d="M185-189c-5-48-123-54-124 2 14 75 158 14 163 119 3 78-121 87-175 55-17-10-28-26-33-46l33-7c5 56 141 63 141-1 0-78-155-14-162-118-5-82 145-84 179-34 5 7 8 16 11 25" id="bj"/><path fill="#333" d="M59-47c-2 24 18 29 38 22v24C64 9 27 4 27-40v-127H5v-23h24l9-43h21v43h35v23H59v120" id="bk"/><g id="S"><use transform="matrix(0.06172839506172839,0,0,0.06172839506172839,0,0)" xlink:href="#bj"/><use transform="matrix(0.06172839506172839,0,0,0.06172839506172839,14.814814814814813,0)" xlink:href="#bk"/><use transform="matrix(0.06172839506172839,0,0,0.06172839506172839,20.98765432098765,0)" xlink:href="#aa"/><use transform="matrix(0.06172839506172839,0,0,0.06172839506172839,33.33333333333333,0)" xlink:href="#Z"/><use transform="matrix(0.06172839506172839,0,0,0.06172839506172839,40.679012345679006,0)" xlink:href="#ac"/><use transform="matrix(0.06172839506172839,0,0,0.06172839506172839,53.02469135802468,0)" xlink:href="#bg"/><use transform="matrix(0.06172839506172839,0,0,0.06172839506172839,65.37037037037037,0)" xlink:href="#Y"/></g><g id="T"><use transform="matrix(0.06172839506172839,0,0,0.06172839506172839,0,0)" xlink:href="#be"/><use transform="matrix(0.06172839506172839,0,0,0.06172839506172839,18.456790123456788,0)" xlink:href="#ac"/><use transform="matrix(0.06172839506172839,0,0,0.06172839506172839,30.80246913580247,0)" xlink:href="#bf"/><use transform="matrix(0.06172839506172839,0,0,0.06172839506172839,43.148148148148145,0)" xlink:href="#ac"/><use transform="matrix(0.06172839506172839,0,0,0.06172839506172839,55.49382716049382,0)" xlink:href="#bg"/><use transform="matrix(0.06172839506172839,0,0,0.06172839506172839,67.8395061728395,0)" xlink:href="#Y"/><use transform="matrix(0.06172839506172839,0,0,0.06172839506172839,80.18518518518519,0)" xlink:href="#Z"/></g></defs></g></svg>